<svg width="277" height="73" viewBox="0 0 277 73" fill="none" xmlns="http://www.w3.org/2000/svg">
<path d="M63.511 36.3904V72.7808H64.6042H65.6973V36.3904V-2.28882e-05H64.6042H63.511V36.3904Z" fill="#53565A"/>
<path d="M270.769 13.8327C270.769 14.7973 272.278 15.4988 273.589 15.1261C274.573 14.8411 275.36 14.315 275.36 13.9204C275.36 13.46 275.185 13.5039 274.442 14.1396C274.092 14.4465 273.611 14.6877 273.371 14.6877C273.065 14.6877 272.955 14.5342 272.955 14.1396C272.955 13.6354 272.89 13.5916 271.862 13.5916C271.228 13.5916 270.769 13.7012 270.769 13.8327Z" fill="#53565A"/>
<path d="M166.943 16.3318C166.178 16.573 166.178 16.6168 164.582 21.3958C163.708 24.0264 162.986 26.3063 162.986 26.4598C162.986 26.6132 163.227 26.7448 163.511 26.7448C163.97 26.7448 164.079 26.5694 164.407 25.2102L164.779 23.6757H166.572H168.364L168.867 25.2102L169.348 26.7448H170.223C170.835 26.7448 171.075 26.6571 171.075 26.4159C171.075 26.0871 167.927 16.2661 167.774 16.1345C167.73 16.0907 167.359 16.1784 166.943 16.3318ZM167.359 20.2778C167.752 21.5931 168.124 22.8207 168.168 22.9523C168.255 23.1715 167.862 23.2372 166.615 23.2372C165.697 23.2372 164.954 23.1934 164.954 23.1276C164.954 22.5796 166.353 17.5595 166.484 17.691C166.55 17.7787 166.943 18.9405 167.359 20.2778Z" fill="#53565A"/>
<path d="M241.408 16.2222C239.462 16.8141 238.172 18.8967 238.172 21.4834C238.15 25.0567 239.746 26.8982 242.61 26.7009C243.703 26.6132 243.987 26.5036 244.643 25.8678C245.474 25.0567 246.021 23.8948 245.54 23.8948C245.387 23.8948 245.102 24.2456 244.906 24.6621C244.162 26.2186 242.413 26.657 241.298 25.5828C240.424 24.7498 240.161 23.6756 240.161 21.1108C240.161 19.2912 240.249 18.787 240.664 17.9759C240.927 17.4279 241.408 16.8579 241.714 16.6825C242.916 16.0249 244.097 17.0333 244.097 18.7432C244.097 19.4885 244.119 19.5105 244.993 19.5105H245.911L245.78 18.524C245.736 17.9759 245.496 17.3183 245.277 17.0552C244.446 16.1345 242.872 15.7837 241.408 16.2222Z" fill="#53565A"/>
<path d="M253.104 16.7703C252.754 17.2087 252.208 18.3267 251.88 19.2913C251.399 20.6505 251.158 21.0451 250.852 21.0451C250.481 21.0451 250.437 20.8478 250.437 18.6336V16.2222H249.453H248.469V21.4835V26.7448H249.453H250.437V24.0922C250.437 20.6943 250.677 20.6943 252.536 24.1141L253.891 26.6351L254.897 26.7009C255.443 26.7448 255.903 26.7228 255.903 26.6351C255.903 26.5694 255.072 25.0129 254.066 23.1496L252.251 19.7955L252.558 18.8309C252.754 18.3048 252.995 17.7348 253.148 17.5595C253.345 17.3183 253.41 17.3622 253.498 17.8883C253.585 18.4363 253.716 18.524 254.438 18.5898L255.247 18.6556V17.7568C255.247 15.8715 254.241 15.4111 253.104 16.7703Z" fill="#53565A"/>
<path d="M0.109314 36.4123V56.6024L8.26409 56.4928C14.6043 56.4051 16.7468 56.3174 18.0367 56.0324C26.3227 54.2568 30.7389 49.9382 30.7171 43.6466C30.6952 40.3364 29.8863 38.2099 27.8749 36.1712C25.0109 33.2994 20.0699 31.7868 13.5111 31.7868H10.6034V24.8814C10.6034 21.0889 10.6908 17.976 10.7783 17.976C10.9532 17.976 26.5631 21.637 27.2846 21.8342C27.6344 21.9439 27.6563 21.7027 27.6563 19.094V16.2222H13.8828H0.109314V36.4123ZM14.801 34.3078C16.9217 35.0532 18.6489 37.2673 19.3703 40.1171C19.7639 41.6736 19.7639 46.6279 19.3703 48.2282C18.6707 51.0562 16.9217 53.2922 14.801 54.0376C14.2326 54.2348 13.052 54.4541 12.1994 54.5198L10.6034 54.6514V44.1727V33.694L12.1994 33.8255C13.052 33.8913 14.2326 34.1105 14.801 34.3078Z" fill="#53565A"/>
<path d="M35.3082 36.9823V57.7643L36.7074 55.1337C37.4726 53.6868 42.4355 44.3481 47.7262 34.3517L57.3458 16.2222H46.327H35.3082V36.9823Z" fill="#53565A"/>
<path d="M71.8188 16.3099C71.8188 16.3757 92.9819 56.3612 93.4848 57.2162C93.5941 57.4135 93.6815 48.6886 93.6815 36.8727V16.2222H82.7502C76.7379 16.2222 71.8188 16.266 71.8188 16.3099Z" fill="#53565A"/>
<path d="M98.9286 36.3904V56.5586H100.022H101.115V38.6922C101.115 28.8712 101.18 20.8259 101.29 20.8259C101.377 20.8259 104.416 26.4159 108.045 33.2775C113.642 43.8439 114.713 45.7072 115.151 45.773C115.61 45.8388 116.222 44.7646 122.256 33.3871C125.885 26.5475 128.968 20.9135 129.077 20.8697C129.252 20.8039 129.318 26.2187 129.318 38.6703V56.5586H134.565H139.812V36.3904V16.2223L134.302 16.2661L128.793 16.3319L124.027 25.3199C121.403 30.2523 119.152 34.3298 118.999 34.3517C118.824 34.3955 116.769 30.7346 113.905 25.3199L109.095 16.2223H104.023H98.9286V36.3904Z" fill="#53565A"/>
<path d="M154.241 21.5054V26.8105L156.34 26.679C159.947 26.4598 161.696 25.1883 161.39 22.9742C161.172 21.3958 159.663 20.4093 157.477 20.3874H156.209V18.5241C156.209 16.3976 156.078 16.4853 158.395 16.9895C160.406 17.428 160.581 17.406 160.581 16.7703V16.2223H157.411H154.241V21.5054ZM158.461 21.2862C158.789 21.5274 159.138 22.1193 159.27 22.6015C159.729 24.2895 159.029 25.6706 157.542 26.0871C156.165 26.4598 156.209 26.5475 156.209 23.5661V20.8259H157.061C157.564 20.8259 158.111 21.0012 158.461 21.2862Z" fill="#53565A"/>
<path d="M174.486 18.6774C175.295 20.0366 175.951 21.2642 175.951 21.3958C175.951 21.5273 175.295 22.7111 174.508 24.0483C173.699 25.3855 173.043 26.5474 173.043 26.6351C173.043 26.7009 173.305 26.7447 173.633 26.7009C174.158 26.6351 174.355 26.372 175.229 24.3991C175.776 23.1714 176.279 22.1849 176.366 22.2069C176.475 22.2288 177.109 23.2372 177.787 24.4429L179.055 26.6351L179.995 26.7009C180.498 26.7447 180.914 26.7009 180.914 26.6132C180.914 26.5255 180.236 25.254 179.383 23.7852L177.853 21.1108L179.143 18.7213C180.345 16.5291 180.411 16.3318 179.995 16.266C179.427 16.1564 179.383 16.2003 178.399 18.4582C177.94 19.5324 177.503 20.3873 177.437 20.3873C177.372 20.3873 176.825 19.4666 176.213 18.3486L175.12 16.3318L174.071 16.266L173.043 16.2003L174.486 18.6774Z" fill="#53565A"/>
<path d="M183.1 21.4835V26.7448H184.084H185.067V24.7718V22.7988H185.789C187.101 22.7988 188.653 22.185 189.44 21.3739C190.14 20.6505 190.205 20.4751 190.205 19.2694C190.205 18.0417 190.14 17.8883 189.506 17.3183C188.566 16.4853 187.56 16.2222 185.133 16.2222H183.1V21.4835ZM187.735 17.5156C188.238 18.0637 188.347 18.4144 188.347 19.3132C188.347 21.1985 187.341 22.3604 185.723 22.3604H185.067V19.4886V16.5949L186.095 16.7264C186.904 16.8141 187.276 16.9895 187.735 17.5156Z" fill="#53565A"/>
<path d="M191.626 16.3319C191.626 16.3976 192.523 17.9979 193.616 19.8613C195.452 22.9742 195.605 23.303 195.343 23.7853C195.059 24.3114 194.184 24.8376 193.025 25.1445L192.348 25.3198L192.698 26.1529L193.047 26.964L193.813 26.5694C194.228 26.3283 194.884 25.7144 195.255 25.1883C195.911 24.2676 199.934 16.6826 199.934 16.3757C199.934 16.288 199.672 16.2222 199.322 16.2222C198.754 16.2222 198.666 16.3757 197.748 18.7433C197.223 20.1243 196.742 21.2643 196.655 21.2643C196.589 21.2643 195.89 20.1463 195.124 18.7871L193.703 16.3319L192.654 16.2661C192.085 16.2222 191.626 16.2661 191.626 16.3319Z" fill="#53565A"/>
<path d="M202.12 21.4835V26.7448H207.695H213.27V21.4835V16.2222H212.287H211.303V21.2643V26.3063H209.991H208.679V21.2643V16.2222H207.695H206.712V21.2643V26.3282L205.356 26.2625L203.979 26.1967L203.913 21.1985L203.869 16.2222H202.995H202.12V21.4835Z" fill="#53565A"/>
<path d="M216.55 21.4835V26.7448H217.402C217.862 26.7448 218.342 26.6132 218.452 26.4598C218.583 26.3282 219.501 24.2895 220.507 21.9438L222.343 17.6691L222.409 22.2069L222.453 26.7448H223.327H224.202V21.4835V16.2222H223.283H222.343L220.441 20.6724L218.539 25.1006L218.517 20.6505V16.2222H217.534H216.55V21.4835Z" fill="#53565A"/>
<path d="M227.525 21.4177L227.59 26.6351L228.53 26.7008L229.449 26.7666V24.136V21.4834H231.416H233.384V24.114V26.7447H234.259H235.133V21.4834V16.2222H234.259H233.384V18.6336V21.045H231.416H229.449V18.6336V16.2222H228.465H227.481L227.525 21.4177Z" fill="#53565A"/>
<path d="M258.089 21.5053V26.7666L259.007 26.7008L259.947 26.6351L261.849 22.2726C262.899 19.8831 263.817 17.8663 263.882 17.8005C263.948 17.7348 263.992 19.7297 263.992 22.2068V26.7447H264.866H265.741V21.4834V16.2222H264.801H263.882L262.024 20.5408L260.166 24.8594L260.1 20.5408L260.056 16.2222H259.073H258.089V21.5053Z" fill="#53565A"/>
<path d="M269.064 21.4177L269.129 26.6351L270.026 26.7008L270.922 26.7666L272.868 22.2945L274.814 17.8005L274.879 22.2726L274.923 26.7447H275.907H276.891V21.4615V16.2002L275.885 16.266L274.857 16.3318L272.977 20.6942L271.097 25.0786L271.032 20.6504L270.988 16.2222H270.004H269.02L269.064 21.4177Z" fill="#53565A"/>
<path d="M253.716 28.6081C253.716 28.652 253.826 28.937 253.957 29.2439C254.285 29.9235 255.443 30.34 256.449 30.1646C257.345 29.9892 258.635 28.9589 258.351 28.6739C258.22 28.5424 257.936 28.6739 257.586 29.0247C257.258 29.3316 256.755 29.5946 256.449 29.5946C256.012 29.5946 255.903 29.485 255.903 29.0466C255.903 28.5424 255.837 28.4985 254.809 28.4985C254.219 28.4985 253.716 28.5424 253.716 28.6081Z" fill="#53565A"/>
<path d="M153.148 31.8964V32.6417L154.569 32.1156C155.356 31.8087 156.056 31.5675 156.099 31.5675C156.165 31.5675 156.209 33.8255 156.209 36.6096V41.6516H157.193H158.176V36.6096C158.176 33.8255 158.242 31.5675 158.351 31.5675C158.439 31.5675 159.029 31.7648 159.663 32.006C161.15 32.5759 161.237 32.554 161.237 31.7867V31.1291H157.193H153.148V31.8964Z" fill="#53565A"/>
<path d="M163.423 36.3903V41.6516H166.703H169.982V41.1036C169.982 40.4678 169.982 40.4678 167.577 40.8843C166.55 41.0597 165.588 41.2132 165.457 41.2132C165.238 41.2132 165.172 40.5774 165.172 38.7579V36.3246L167.249 36.4561C169.261 36.5876 169.326 36.5876 169.326 36.1273C169.326 35.6888 169.261 35.6669 167.249 35.7985L165.172 35.93V33.7597C165.172 32.1594 165.238 31.5675 165.457 31.5675C165.588 31.5675 166.55 31.721 167.577 31.8964C169.982 32.3129 169.982 32.3129 169.982 31.6771V31.1291H166.703H163.423V36.3903Z" fill="#53565A"/>
<path d="M175.47 31.4141C175.032 31.6333 174.683 32.4663 173.327 36.5C172.453 39.1525 171.731 41.3885 171.731 41.4762C171.731 41.5858 171.972 41.6516 172.278 41.6516C172.824 41.6516 172.999 41.2789 173.393 39.284L173.546 38.5825H175.36H177.175L177.656 40.1171L178.115 41.6516H179.099C179.799 41.6516 180.061 41.5639 179.973 41.3666C179.93 41.2351 179.165 38.8675 178.268 36.1054C176.585 30.866 176.585 30.8441 175.47 31.4141ZM176.191 35.3381C176.628 36.7411 176.978 37.9468 176.978 38.0126C176.978 38.0783 176.235 38.1441 175.317 38.1441C174.071 38.1441 173.677 38.0783 173.743 37.8591C173.808 37.7276 174.136 36.4342 174.486 35.0312C174.814 33.6063 175.164 32.5102 175.251 32.6198C175.317 32.7075 175.754 33.9132 176.191 35.3381Z" fill="#53565A"/>
<path d="M180.039 31.8744V32.6198L181.088 32.2252C181.657 32.006 182.335 31.7648 182.619 31.6991L183.1 31.5456V36.5876V41.6516H184.084H185.067V36.5876V31.5456L185.57 31.6991C185.833 31.7648 186.51 32.006 187.101 32.2252L188.128 32.6198V31.8744V31.1291H184.084H180.039V31.8744Z" fill="#53565A"/>
<path d="M190.096 36.3903V41.6516H191.08H192.064V39.6786V37.7057H192.96C195.802 37.7057 197.77 35.8423 197.289 33.5843C196.939 31.8964 195.321 31.1291 192.129 31.1291H190.096V36.3903ZM194.031 31.8964C195.015 32.4006 195.343 33.0582 195.343 34.4831C195.343 35.6669 195.277 35.8423 194.6 36.5219C193.987 37.1357 193.681 37.2672 192.96 37.2672H192.064V34.4174V31.5675H192.719C193.091 31.5675 193.681 31.721 194.031 31.8964Z" fill="#53565A"/>
<path d="M201.771 31.3483C201.377 31.5018 200.984 32.4663 199.716 36.3246C198.841 38.9552 198.076 41.2351 198.01 41.3885C197.945 41.6078 198.076 41.6735 198.535 41.6078C199.103 41.542 199.169 41.4105 199.497 40.1171L199.847 38.6922H201.683H203.52L203.957 40.1609L204.372 41.6516H205.312C205.837 41.6516 206.274 41.5858 206.274 41.5201C206.274 41.4543 205.531 39.0867 204.613 36.2588C202.886 30.866 202.886 30.8879 201.771 31.3483ZM203.104 37.5303L203.257 38.1441H201.705C200.437 38.1441 200.153 38.0783 200.153 37.7934C200.153 37.4426 201.158 33.2336 201.399 32.6636C201.508 32.3786 202.754 35.9081 203.104 37.5303Z" fill="#53565A"/>
<path d="M210.472 33.4747C210.341 34.79 210.057 36.3684 209.86 37.0261C209.488 38.166 208.461 39.5033 207.805 39.7225C207.542 39.8102 207.542 39.9636 207.761 40.7309C208.067 41.7612 208.373 41.8708 209.095 41.1693C210.188 40.1609 211.062 36.9822 211.084 33.9789C211.106 31.6333 211.15 31.5675 212.636 31.5675H213.926V36.6096V41.6516H214.91H215.894V36.3903V31.1291H213.292H210.712L210.472 33.4747Z" fill="#53565A"/>
<path d="M218.955 36.3903V41.6516H220.485C223.743 41.6516 225.754 40.6432 226.06 38.8237C226.388 36.8726 225.032 35.6231 222.343 35.36L220.922 35.2285V33.1897V31.1291H219.938H218.955V36.3903ZM222.802 36.0615C223.611 36.3903 224.202 37.4207 224.202 38.4729C224.202 39.5252 223.611 40.5555 222.802 40.8843C222.365 41.0597 221.775 41.2132 221.469 41.2132H220.922V38.4729V35.7327H221.469C221.775 35.7327 222.365 35.8861 222.802 36.0615Z" fill="#53565A"/>
<path d="M228.356 36.3903V41.6516H229.339H230.323V39.021V36.3903H232.182H234.04V39.021V41.6516H235.024H236.008V36.3903V31.1291H235.024H234.04V33.5405V35.9519H232.182H230.323V33.5405V31.1291H229.339H228.356V36.3903Z" fill="#53565A"/>
<path d="M239.068 36.3903V41.6516H240.555C244.425 41.6516 246.698 39.7444 245.715 37.2891C245.299 36.215 244.075 35.5573 242.238 35.36L241.036 35.2285V33.1897V31.1291H240.052H239.068V36.3903ZM242.523 35.9738C243.463 36.3027 243.944 37.1357 243.944 38.4729C243.944 39.8102 243.463 40.6432 242.523 40.972C241.036 41.4982 241.036 41.5201 241.036 38.4729C241.036 35.4258 241.036 35.4477 242.523 35.9738Z" fill="#53565A"/>
<path d="M246.939 36.3903V41.6516H247.923H248.906V36.3903V31.1291H247.923H246.939V36.3903Z" fill="#53565A"/>
<path d="M252.186 36.4123V41.6736L253.104 41.6078L254.022 41.5421L255.903 37.2454L257.761 32.9267L257.826 37.2892L257.87 41.6517H258.854H259.838V36.3904V31.1291H258.898H257.958L256.143 35.3381C255.137 37.6619 254.241 39.6568 254.132 39.7883C254.022 39.8979 253.935 38.1661 253.935 35.5574V31.1291H253.06H252.186V36.4123Z" fill="#53565A"/>
<path d="M196.873 43.8219C196.873 44.4358 197.901 45.1592 198.775 45.1592C200.131 45.1592 201.705 44.2165 201.355 43.6246C201.246 43.4493 201.005 43.5589 200.612 43.9096C200.306 44.2165 199.825 44.5234 199.562 44.6111C199.125 44.7427 199.06 44.6769 199.06 44.085C199.06 43.4273 199.038 43.4054 197.966 43.4054C197.026 43.4054 196.873 43.4712 196.873 43.8219Z" fill="#53565A"/>
<path d="M179.274 45.9922C178.399 46.0799 176.541 46.6937 176.541 46.891C176.541 46.9787 176.694 47.5267 176.913 48.1186L177.262 49.1928L177.765 48.0748C178.312 46.8252 178.771 46.4745 179.886 46.4745C180.957 46.4745 181.438 47.0883 181.438 48.4913C181.438 49.4778 181.351 49.6751 180.717 50.2451C179.995 50.9027 179.361 50.9466 178.159 50.4862C177.94 50.3985 177.853 50.53 177.853 50.9466C177.853 51.4946 177.875 51.5165 179.143 51.3631C180.389 51.2535 180.476 51.2754 181.11 51.9111C181.679 52.4592 181.788 52.7442 181.788 53.5991C181.788 54.1472 181.657 54.8706 181.482 55.2213C180.957 56.2078 179.646 56.6024 178.662 56.0982C177.984 55.7255 177.853 55.4844 177.853 54.4102V53.4895H176.978C176.104 53.4895 176.104 53.4895 176.104 54.3445C176.104 55.594 176.782 56.2736 178.312 56.6024C181.001 57.1505 183.471 55.9228 183.69 53.906C183.756 53.3141 183.69 52.7003 183.537 52.4153C183.209 51.8015 182.05 51.0781 181.351 51.0781C180.804 51.0562 180.804 51.0562 181.46 50.7054C183.603 49.5874 184.127 47.6144 182.597 46.5841C181.985 46.1895 180.28 45.8826 179.274 45.9922Z" fill="#53565A"/>
<path d="M154.241 51.2973V56.5586H154.788C155.291 56.5586 155.312 56.4928 155.225 55.6159C155.028 53.9279 154.678 48.1625 154.744 48.0748C154.81 48.0309 155.75 49.982 156.865 52.3934C158.002 54.8048 158.942 56.7339 159.007 56.6682C159.051 56.6243 159.838 54.7171 160.734 52.4592C161.631 50.2012 162.462 48.2501 162.571 48.1186C162.68 48.009 162.768 49.5655 162.768 52.2399V56.5586H163.642H164.517V51.2754V46.0141L163.598 46.0799L162.68 46.1456L161.15 49.9601L159.619 53.7964L158.854 52.1523C158.417 51.2754 157.586 49.5216 157.018 48.2721L155.99 46.036H155.116H154.241V51.2973Z" fill="#53565A"/>
<path d="M166.484 46.1456C166.484 46.1894 167.424 47.8336 168.583 49.8065L170.682 53.3798L169.895 54.0813C169.414 54.5417 168.802 54.8486 168.233 54.9363C167.249 55.0897 167.271 55.0678 167.621 56.0543C167.927 56.9092 168.058 56.9312 169.02 56.3393C169.982 55.7255 170.747 54.5198 173.065 49.9161L175.032 46.036H174.377C173.764 46.036 173.699 46.1237 172.715 48.6666C172.147 50.1134 171.644 51.2972 171.622 51.2972C171.578 51.2972 170.879 50.1134 170.048 48.6666L168.561 46.036H167.534C166.943 46.036 166.484 46.0798 166.484 46.1456Z" fill="#53565A"/>
<path d="M186.379 51.2973V56.5586H189.659H192.938V55.9886C192.938 55.4844 192.872 55.4406 192.348 55.5502C191.298 55.7694 188.915 56.1202 188.522 56.1202C188.172 56.1202 188.128 55.8571 188.128 53.6868V51.2535L190.205 51.4069C192.26 51.5604 192.282 51.5604 192.282 51.0781C192.282 50.5958 192.26 50.5958 190.205 50.7493L188.128 50.9027V48.6886C188.128 47.461 188.216 46.4745 188.325 46.4745C188.434 46.4745 189.309 46.628 190.249 46.8033C192.676 47.2637 192.938 47.2418 192.938 46.5841V46.0361H189.659H186.379V51.2973Z" fill="#53565A"/>
<path d="M195.124 51.2973V56.5586H196.086H197.026L198.841 52.3277C199.847 50.0259 200.743 48.031 200.852 47.8994C200.94 47.7898 201.027 49.697 201.027 52.1304V56.5586H202.011H202.995V51.2754V46.0141L201.967 46.0799L200.962 46.1457L199.081 50.5081L197.201 54.8706L197.136 50.4643L197.092 46.0361H196.108H195.124V51.2973Z" fill="#53565A"/>
<path d="M218.955 46.6499L217.534 47.2418L218.364 47.3075L219.173 47.3733V51.9769V56.5586H220.157H221.141V51.2973C221.141 45.2688 221.338 45.6853 218.955 46.6499Z" fill="#53565A"/>
<path d="M225.623 46.2991C224.661 46.8252 224.202 47.4171 224.202 48.1625C224.202 49.127 224.661 49.9601 225.513 50.6177L226.213 51.1219L225.557 51.4508C223.262 52.5688 222.868 55.1994 224.858 56.2297C225.885 56.7778 227.875 56.8874 229.252 56.4928C230.826 56.0324 231.526 55.2871 231.526 54.0595C231.526 52.8757 231.045 52.1742 229.667 51.2754L228.574 50.5739L229.186 50.2012C230.17 49.5874 230.586 48.9736 230.586 48.1186C230.586 47.2418 230.301 46.8033 229.427 46.343C228.705 45.9703 226.257 45.9484 225.623 46.2991ZM228.837 46.8472C229.077 47.0664 229.23 47.5048 229.23 47.9652C229.23 48.8201 228.487 50.2012 228.028 50.2012C227.568 50.2012 226.213 48.8201 226.06 48.1625C225.798 47.176 226.432 46.4745 227.525 46.4745C228.071 46.4745 228.596 46.6279 228.837 46.8472ZM229.033 53.0072C229.82 53.906 229.864 54.8487 229.143 55.5721C227.678 57.0409 225.295 56.164 225.295 54.1472C225.295 53.1607 225.535 52.5688 226.235 51.8015L226.672 51.2973L227.547 51.8015C228.006 52.0646 228.683 52.6126 229.033 53.0072Z" fill="#53565A"/>
<path d="M235.133 46.2771C233.887 46.7813 233.122 48.009 233.1 49.5216C233.078 51.6699 234.346 52.7441 236.663 52.5468C237.319 52.503 238.063 52.3714 238.281 52.2838C238.653 52.1303 238.675 52.1741 238.544 52.7441C238.237 53.9498 237.341 55.024 236.161 55.594C235.527 55.8789 234.849 56.1201 234.652 56.1201C234.433 56.1201 234.258 56.2735 234.258 56.4489C234.258 56.6901 234.433 56.7339 234.98 56.6243C238.478 55.9666 240.817 53.5114 240.817 50.53C240.817 48.7324 239.855 47.0006 238.478 46.2771C237.91 45.9922 235.876 45.9922 235.133 46.2771ZM237.8 46.8471C238.412 47.5705 238.631 48.1844 238.762 49.7189L238.915 51.2753L238.172 51.7138C236.663 52.6345 235.439 52.1084 235.111 50.3546C234.893 49.1051 235.155 47.5048 235.68 46.9129C236.182 46.3648 237.341 46.3429 237.8 46.8471Z" fill="#53565A"/>
<path d="M245.059 49.434C242.61 52.6784 242.501 52.8757 242.785 53.3799C243.069 53.906 243.178 53.928 245.124 53.928H247.157V55.2433V56.5586H248.141H249.125V55.2433V53.928H249.89C250.568 53.928 250.655 53.8622 250.655 53.3799C250.655 52.8976 250.568 52.8319 249.89 52.8319H249.125V49.434V46.0361H248.382C247.66 46.0361 247.485 46.2114 245.059 49.434ZM247.092 52.7661C247.026 52.8099 246.13 52.8319 245.08 52.788L243.178 52.7223L245.124 50.1793L247.048 47.6364L247.114 50.1574C247.136 51.5385 247.136 52.7223 247.092 52.7661Z" fill="#53565A"/>
<path d="M209.816 50.7053L209.116 51.4288L209.86 52.1522L210.603 52.8756L211.259 52.4372C212.461 51.5603 212.505 51.4068 211.587 50.6615C211.128 50.2888 210.712 49.9819 210.647 49.9819C210.581 49.9819 210.21 50.3107 209.816 50.7053Z" fill="#53565A"/>
</svg>
