<svg width="37" height="36" viewBox="0 0 37 36" fill="none" xmlns="http://www.w3.org/2000/svg">
<path d="M29.4142 18.3014C24.9161 18.3578 22.3885 18.6646 20.7015 20.3535C19.0138 22.0419 18.7071 24.572 18.6507 29.0733H17.9861C17.9303 24.572 17.6229 22.0419 15.9359 20.3535C14.2495 18.6646 11.7213 18.3578 7.22322 18.3014V17.6362C11.7213 17.5797 14.2495 17.273 15.9359 15.5847C17.6229 13.8957 17.9303 11.3655 17.9861 6.86421H18.6507C18.7071 11.3655 19.0138 13.8957 20.7015 15.5847C22.3885 17.273 24.9161 17.5797 29.4142 17.6362V18.3014ZM18.3393 0.0544777C8.43754 0.0544777 0.411377 8.08116 0.411377 17.9827C0.411377 27.8843 8.43754 35.9116 18.3393 35.9116C28.2417 35.9116 36.2685 27.8843 36.2685 17.9827C36.2685 8.08116 28.2417 0.0544777 18.3393 0.0544777Z" fill="#53565A"/>
</svg>
