<svg width="38" height="36" viewBox="0 0 38 36" fill="none" xmlns="http://www.w3.org/2000/svg">
<path d="M24.4804 19.3807C24.2656 19.0527 23.9245 18.82 23.5317 18.7335C23.139 18.647 22.7266 18.7138 22.385 18.9193C21.3412 19.5454 20.1358 19.8773 18.9058 19.8773C17.6759 19.8773 16.4705 19.5454 15.4267 18.9193C15.2579 18.8162 15.0695 18.7464 14.8725 18.7138C14.6754 18.6812 14.4736 18.6865 14.2787 18.7294C14.0838 18.7723 13.8996 18.852 13.7369 18.9638C13.5742 19.0755 13.4361 19.2173 13.3306 19.3807C13.2237 19.5433 13.1513 19.7246 13.1176 19.9142C13.0839 20.1038 13.0895 20.298 13.1341 20.4855C13.1788 20.673 13.2616 20.8501 13.3777 21.0067C13.4938 21.1633 13.6411 21.2962 13.8108 21.3977C14.7343 21.961 15.7517 22.3671 16.8184 22.5981L13.9226 25.3839C13.6383 25.6575 13.4786 26.0285 13.4786 26.4153C13.4786 26.8022 13.6383 27.1732 13.9226 27.4467C14.2269 27.7236 14.6105 27.8776 14.9948 27.8776C15.1944 27.8792 15.3923 27.8419 15.5764 27.7678C15.7606 27.6937 15.9273 27.5845 16.0663 27.4467L18.9138 24.7067L21.7605 27.4467C22.0471 27.7093 22.4291 27.8537 22.8248 27.8491C23.2205 27.8445 23.5987 27.6912 23.8785 27.422C24.1584 27.1527 24.3178 26.7889 24.3228 26.4081C24.3277 26.0273 24.1778 25.6598 23.9049 25.3839L20.9933 22.5981C22.049 22.3671 23.057 21.9667 24.0008 21.3977C24.3415 21.1907 24.5831 20.8623 24.673 20.4844C24.7628 20.1065 24.6936 19.7097 24.4804 19.3807ZM13.7308 13.578C13.7308 16.3181 16.0504 18.5495 18.8979 18.5495C21.7454 18.5495 24.0643 16.3181 24.0643 13.578C24.0643 10.838 21.7454 8.60526 18.8979 8.60526C16.0504 8.60526 13.7308 10.838 13.7308 13.578ZM37.5378 17.9832C37.5378 27.8849 29.1962 35.9117 18.9055 35.9117C8.61545 35.9117 0.274536 27.8849 0.274536 17.9832C0.274536 8.08143 8.61545 0.0545998 18.9055 0.0545998C29.1962 0.0545998 37.5378 8.08143 37.5378 17.9832ZM16.7542 13.578C16.7542 13.031 16.9801 12.5063 17.3821 12.1194C17.7841 11.7326 18.3294 11.5152 18.8979 11.5152C19.4665 11.5152 20.0117 11.7326 20.4137 12.1194C20.8158 12.5063 21.0416 13.031 21.0416 13.578C21.0416 14.1251 20.8158 14.6498 20.4137 15.0367C20.0117 15.4235 19.4665 15.6409 18.8979 15.6409C18.3294 15.6409 17.7841 15.4235 17.3821 15.0367C16.9801 14.6498 16.7542 14.1251 16.7542 13.578Z" fill="#53565A"/>
</svg>
