<svg width="37" height="37" viewBox="0 0 37 37" fill="none" xmlns="http://www.w3.org/2000/svg">
<path d="M36.1753 16.9843C35.7518 16.9843 35.3952 16.65 35.3952 16.2042C35.3952 8.13554 28.8199 1.56024 20.7512 1.56024C20.3277 1.56024 19.9711 1.2259 19.9711 0.78012C19.9711 0.334337 20.3054 0 20.7512 0C29.6669 0 36.9331 7.26627 36.9331 16.1819C36.9331 16.6054 36.5988 16.962 36.153 16.962L36.1753 16.9843ZM30.7813 16.2042C30.7813 10.6765 26.2789 6.1741 20.7512 6.1741C20.3277 6.1741 19.9711 6.50843 19.9711 6.95422C19.9711 7.4 20.3054 7.73434 20.7512 7.73434C25.4319 7.73434 29.2211 11.5458 29.2211 16.2042C29.2211 16.6277 29.5554 16.9843 30.0012 16.9843C30.447 16.9843 30.7813 16.65 30.7813 16.2042ZM34.2361 34.3476L35.7518 32.609C36.5319 31.8289 36.9777 30.7813 36.9777 29.6669C36.9777 28.5524 36.5542 27.5271 35.6849 26.6578L31.9181 23.7602C30.3133 22.1554 27.6831 22.1331 26.056 23.7602L23.6934 26.056C18.0096 23.738 13.3958 19.1241 10.8994 13.262L13.1952 10.9217C14.8223 9.29458 14.8223 6.66446 13.262 5.12651L10.253 1.20361C8.69277 -0.356627 5.90663 -0.334337 4.43554 1.15904L2.63012 2.74157C0.936145 4.43554 0 6.73133 0 9.18313C0 21.1301 15.8476 36.9777 27.7946 36.9777C30.2687 36.9777 32.5645 36.0416 34.2807 34.303L34.2361 34.3476ZM9.07169 2.2512L12.0807 6.1741C13.106 7.1994 13.106 8.8488 12.0807 9.8741L9.42831 12.5934C9.20542 12.8163 9.16084 13.1283 9.27229 13.4181C11.947 20.0602 17.1627 25.2759 23.5819 27.7277C23.8717 27.8392 24.1837 27.7723 24.3843 27.5717L27.1036 24.9193C28.0843 23.9386 29.7337 23.8717 30.8705 24.9861L34.6373 27.8837C35.6627 28.909 35.6627 30.5584 34.5928 31.606L33.0771 33.3446C31.6729 34.7488 29.7783 35.5289 27.7054 35.5289C16.6723 35.5289 1.47108 20.3277 1.47108 9.29458C1.47108 7.24398 2.2512 5.32711 3.61084 3.96747L5.41627 2.38494C5.92892 1.87229 6.61988 1.60482 7.28855 1.60482C7.95723 1.60482 8.55904 1.85 9.02711 2.29578L9.07169 2.2512Z" fill="#575756"/>
</svg>
