<svg width="36" height="36" viewBox="0 0 36 36" fill="none" xmlns="http://www.w3.org/2000/svg">
<path d="M22.6488 14.6496C22.8241 14.8036 22.9343 15.0885 22.9343 15.5054V16.7349C22.9343 17.1738 22.8241 17.4599 22.6488 17.6133C22.4735 17.7666 22.1216 17.833 21.617 17.833H12.7032V14.408H21.617C22.1216 14.408 22.4735 14.4956 22.6488 14.6496ZM27.7789 11.3879C27.2822 11.3868 26.8062 11.189 26.455 10.8377C26.1039 10.4865 25.9062 10.0104 25.9053 9.5137C25.9062 9.01702 26.1039 8.54092 26.455 8.18965C26.8062 7.83838 27.2822 7.64057 27.7789 7.63951C28.2758 7.64022 28.7522 7.83788 29.1037 8.18918C29.4551 8.54049 29.6529 9.01679 29.6538 9.5137C29.6529 10.0106 29.4551 10.4869 29.1037 10.8382C28.7522 11.1895 28.2758 11.3872 27.7789 11.3879ZM22.9343 25.8237L19.7288 21.0602H12.7032V25.8237H9.03703V11.1807H22.2099C23.0219 11.1807 23.6805 11.2684 24.2077 11.4224C24.7164 11.5879 25.1815 11.8653 25.5687 12.2344C25.9339 12.6123 26.2049 13.0711 26.3594 13.5734C26.5128 14.0787 26.6004 14.7372 26.6004 15.5718V16.6692C26.6004 18.0747 26.3594 19.1283 25.8761 19.7869C25.3934 20.4454 24.6034 20.8624 23.5046 21.0376L27.04 25.8237H22.9343ZM18.0704 0.0544777C8.16862 0.0544777 0.142456 8.08167 0.142456 17.983C0.142456 27.8844 8.16862 35.9116 18.0704 35.9116C27.9728 35.9116 35.9996 27.8844 35.9996 17.983C35.9996 8.08167 27.9728 0.0544777 18.0704 0.0544777Z" fill="#53565A"/>
</svg>
