<svg width="42" height="42" viewBox="0 0 42 42" fill="none" xmlns="http://www.w3.org/2000/svg">
<g clip-path="url(#clip0_12_1940)">
<path d="M17.4961 7.00779C15.1602 7.00779 12.9644 7.9188 11.3059 9.57731C9.64739 11.2358 8.73637 13.4316 8.73637 15.7675C8.73637 18.1034 9.64739 20.2992 11.3059 21.9577L17.4961 28.0078L23.6863 21.9577C25.3448 20.2992 26.2558 18.1034 26.2558 15.7675C26.2558 13.4316 25.3448 11.2358 23.6863 9.57731C22.0278 7.9188 19.832 7.00779 17.4961 7.00779ZM22.4483 20.6963L17.4961 25.5551L12.5439 20.7197C11.2125 19.3882 10.4883 17.6363 10.4883 15.7675C10.4883 13.8988 11.2125 12.1468 12.5439 10.8154C13.8754 9.48387 15.6274 8.75973 17.4961 8.75973C19.3649 8.75973 21.1168 9.48387 22.4483 10.8154C23.7798 12.1468 24.5039 13.8988 24.5039 15.7675C24.5039 17.6363 23.7798 19.3882 22.4716 20.7197L22.4483 20.6963ZM19.2481 15.7442C19.2481 16.7019 18.4538 17.4961 17.4961 17.4961C16.5384 17.4961 15.7442 16.7019 15.7442 15.7442C15.7442 14.7864 16.5384 13.9922 17.4961 13.9922C18.4538 13.9922 19.2481 14.7864 19.2481 15.7442ZM42 40.762L30.4605 29.2225C33.2636 26.1157 34.9922 22.0044 34.9922 17.4961C34.9922 7.84872 27.1435 0 17.4961 0C7.84872 0 0 7.84872 0 17.4961C0 27.1435 7.84872 34.9922 17.4961 34.9922C22.0044 34.9922 26.1157 33.2636 29.2225 30.4605L40.762 42L42 40.762ZM1.75195 17.4961C1.75195 8.80645 8.80645 1.75195 17.4961 1.75195C26.1858 1.75195 33.2403 8.80645 33.2403 17.4961C33.2403 26.1858 26.1858 33.2403 17.4961 33.2403C8.80645 33.2403 1.75195 26.1858 1.75195 17.4961Z" fill="#575756"/>
</g>
<defs>
<clipPath id="clip0_12_1940">
<rect width="42" height="42" fill="white"/>
</clipPath>
</defs>
</svg>
