<svg width="38" height="38" viewBox="0 0 38 38" fill="none" xmlns="http://www.w3.org/2000/svg">
<path d="M18.9832 0C8.50025 0 0 8.50025 0 18.9832C0 29.4661 8.50025 37.9664 18.9832 37.9664C29.4661 37.9664 37.9664 29.4661 37.9664 18.9832C37.9664 8.50025 29.4732 0 18.9832 0ZM27.849 12.8031C27.5608 15.7982 26.3304 23.0611 25.7046 26.4148C25.4375 27.835 24.9172 28.3131 24.411 28.3553C23.3142 28.4537 22.4775 27.6311 21.4088 26.928C19.7425 25.8382 18.8004 25.1562 17.1833 24.0876C15.3131 22.8572 16.5294 22.1752 17.5911 21.0713C17.8723 20.7831 22.7166 16.3748 22.808 15.974C22.822 15.9248 22.829 15.735 22.7166 15.6365C22.6041 15.5381 22.4424 15.5732 22.3228 15.6014C22.1541 15.6365 19.4964 17.4013 14.3358 20.8815C13.5765 21.4018 12.8945 21.6549 12.2828 21.6408C11.6079 21.6268 10.3072 21.2612 9.33692 20.9448C8.14871 20.5581 7.20658 20.3542 7.29095 19.7003C7.33314 19.3558 7.8042 19.0113 8.69711 18.6527C14.2163 16.2482 17.9004 14.6592 19.7425 13.8929C25.0016 11.7063 26.0913 11.3266 26.8085 11.3126C26.9632 11.3126 27.3147 11.3477 27.5397 11.5305C27.7295 11.6852 27.7858 11.8961 27.8069 12.0438C27.835 12.1914 27.8631 12.5289 27.842 12.789L27.849 12.8031Z" fill="#53565A"/>
</svg>
