<svg width="38" height="36" viewBox="0 0 38 36" fill="none" xmlns="http://www.w3.org/2000/svg">
<path d="M25.5577 24.5952C24.767 22.1798 22.7979 20.3115 20.1924 20.0579V24.5952H19.7909C12.7021 24.5952 8.65885 19.8289 8.49098 11.8977H12.0415C12.1579 17.7189 14.7763 20.1847 16.849 20.6933V11.8977H20.1924V16.9182C22.2401 16.7018 24.3913 14.4139 25.117 11.8977H28.461C27.9033 14.9988 25.5712 17.2867 23.9121 18.2275C25.5712 18.9897 28.2275 20.9854 29.2382 24.5952H25.5577ZM19.1201 0.0545998C9.0244 0.0545998 0.840332 8.08143 0.840332 17.9832C0.840332 27.8856 9.0244 35.9117 19.1201 35.9117C29.2165 35.9117 37.4006 27.8856 37.4006 17.9832C37.4006 8.08143 29.2165 0.0545998 19.1201 0.0545998Z" fill="#53565A"/>
</svg>
