<?xml version="1.0" standalone="no"?>
<!DOCTYPE svg PUBLIC "-//W3C//DTD SVG 20010904//EN"
 "http://www.w3.org/TR/2001/REC-SVG-20010904/DTD/svg10.dtd">
<svg version="1.0" xmlns="http://www.w3.org/2000/svg"
 width="1090.000000pt" height="1090.000000pt" viewBox="0 0 1090.000000 1090.000000"
 preserveAspectRatio="xMidYMid meet">
<metadata>
Created by potrace 1.14, written by Peter Selinger 2001-2017
</metadata>
<g transform="translate(0.000000,1090.000000) scale(0.100000,-0.100000)"
fill="#000000" stroke="none">
<path d="M7075 10589 c-64 -12 -69 -13 -83 -27 -8 -7 -18 -10 -23 -7 -5 4 -9
1 -9 -4 0 -6 -7 -11 -15 -11 -8 0 -15 -4 -15 -10 0 -5 -7 -10 -15 -10 -8 0
-15 -4 -15 -8 0 -4 -13 -15 -28 -25 -38 -22 -92 -77 -92 -94 0 -7 -4 -13 -10
-13 -5 0 -10 -7 -10 -15 0 -8 -4 -15 -10 -15 -5 0 -10 -7 -10 -15 0 -8 -4 -15
-9 -15 -9 0 -32 -80 -38 -130 -9 -84 0 -239 16 -265 3 -5 6 -12 6 -15 0 -3 13
-32 29 -65 41 -83 128 -164 230 -214 95 -46 115 -54 138 -55 23 -1 22 -9 -14
-86 -17 -36 -55 -126 -85 -200 -85 -211 -115 -280 -123 -280 -4 0 -11 -10 -15
-22 -4 -13 -8 -25 -9 -28 -2 -3 -8 -18 -15 -35 -6 -16 -18 -43 -25 -60 -8 -16
-27 -57 -42 -90 -16 -33 -27 -63 -26 -67 1 -5 -2 -8 -8 -8 -5 0 -10 -5 -10
-11 0 -17 -63 -180 -67 -175 -3 2 3 28 12 58 19 62 45 155 50 182 3 10 9 24
16 32 6 8 9 14 5 14 -3 0 6 32 20 71 14 39 27 78 30 87 2 9 11 42 20 72 8 30
18 68 21 85 2 16 16 65 29 110 13 44 26 88 29 99 2 10 12 43 20 74 9 30 14 60
11 67 -2 7 -23 15 -47 19 -23 4 -47 10 -53 14 -6 3 -15 7 -21 9 -5 1 -20 4
-32 7 -12 2 -31 10 -42 16 -12 6 -21 9 -21 6 0 -3 -25 4 -55 14 -31 11 -74 20
-97 22 l-40 2 6 51 c7 59 15 103 22 128 5 14 -1 17 -36 17 -37 0 -125 19 -170
37 -8 4 -18 7 -22 7 -3 1 -10 4 -14 9 -4 4 -13 7 -20 7 -7 0 -33 12 -58 27
-34 21 -53 43 -78 90 -18 35 -36 63 -41 63 -4 0 -6 4 -2 9 3 5 1 12 -5 16 -6
3 -17 22 -25 41 -13 33 -16 34 -57 30 -24 -3 -43 -5 -43 -6 0 -2 -38 -9 -80
-15 -22 -3 -49 -7 -60 -9 -11 -3 -33 -5 -50 -5 -44 -2 -58 -15 -61 -58 -2 -21
-5 -63 -7 -94 -3 -31 -7 -61 -10 -66 -3 -5 -4 -18 -3 -29 2 -10 1 -23 -2 -29
-4 -5 -7 -28 -8 -50 -1 -22 -3 -40 -3 -40 -1 0 -4 -27 -6 -60 -9 -112 -36
-233 -56 -246 -15 -9 -24 -10 -104 -13 -48 -1 -50 0 -50 27 1 15 -3 27 -8 27
-4 0 -5 5 -1 12 4 6 9 97 11 202 2 105 5 208 6 229 4 46 16 49 -175 -41 -4 -2
-6 84 -3 191 l4 195 -120 -3 c-66 -2 -123 -5 -125 -8 -3 -3 -20 -1 -39 3 -19
4 -36 6 -39 3 -2 -2 -36 -6 -75 -8 l-70 -3 -11 57 c-6 31 -27 107 -47 169 -33
104 -37 113 -57 107 -11 -3 -30 -7 -41 -9 -11 -2 -42 -9 -70 -16 -27 -6 -70
-13 -95 -16 -25 -2 -54 -6 -65 -8 -11 -2 -24 -5 -28 -5 -4 -1 -3 -9 2 -19 5
-10 12 -38 15 -63 2 -24 5 -44 6 -44 1 0 4 -13 6 -30 3 -16 18 -75 34 -130 28
-96 35 -124 46 -190 3 -16 9 -43 14 -60 24 -86 24 -84 -25 -106 -25 -11 -55
-22 -67 -24 -11 -3 -76 -32 -144 -66 -67 -34 -124 -60 -126 -59 -2 1 -16 -4
-33 -10 -16 -7 -56 -19 -89 -26 -63 -15 -152 -49 -254 -95 -35 -16 -66 -29
-68 -29 -3 0 -25 -9 -49 -20 -25 -11 -48 -19 -52 -19 -9 2 -24 -3 -90 -32 -23
-11 -48 -19 -55 -19 -7 0 -24 -9 -38 -20 -14 -11 -30 -20 -36 -20 -13 0 -97
-40 -104 -50 -3 -4 -36 -24 -73 -44 -37 -21 -94 -57 -126 -81 -32 -23 -82 -60
-111 -80 -30 -21 -59 -42 -65 -46 -5 -5 -25 -21 -44 -36 l-33 -27 56 -52 c31
-29 56 -57 56 -62 0 -6 4 -12 9 -14 10 -3 89 -92 131 -147 14 -18 41 -51 60
-73 19 -22 52 -64 73 -92 21 -28 45 -59 53 -69 7 -9 14 -19 14 -22 0 -3 12
-19 28 -36 67 -77 149 -168 189 -210 23 -26 43 -52 43 -58 0 -6 -18 -11 -40
-11 -48 0 -49 0 -77 -11 -19 -7 -31 2 -87 64 -82 92 -96 107 -126 148 -25 33
-135 149 -142 149 -2 0 -31 -26 -64 -57 -33 -32 -74 -69 -92 -83 -17 -14 -32
-28 -32 -32 0 -9 29 -45 93 -114 26 -28 47 -54 47 -58 0 -4 10 -17 23 -30 100
-105 151 -156 158 -156 4 0 10 -7 13 -16 7 -17 -24 -49 -101 -106 -24 -17 -43
-35 -43 -39 0 -5 10 -19 23 -31 23 -25 47 -57 100 -136 32 -48 52 -74 75 -97
6 -8 12 -16 12 -19 0 -10 110 -173 125 -186 8 -7 15 -18 15 -25 0 -8 4 -15 8
-17 5 -1 33 -38 62 -80 44 -65 51 -80 40 -93 -7 -8 -19 -15 -26 -15 -8 0 -14
-4 -14 -10 0 -5 -5 -10 -11 -10 -6 0 -25 -10 -42 -22 -18 -13 -34 -22 -37 -22
-8 2 -40 -20 -40 -28 0 -24 46 -14 124 26 79 41 115 47 83 14 -7 -7 -23 -28
-36 -45 l-22 -33 -164 0 -164 0 -4 -357 c-2 -197 -6 -365 -9 -373 -3 -8 -8
-22 -11 -30 -3 -8 -11 -42 -18 -75 -7 -33 -14 -67 -16 -75 -6 -25 -11 -53 -17
-100 -3 -25 -8 -56 -11 -70 -15 -77 -22 -310 -15 -505 2 -60 -1 -81 -11 -100
-4 -5 -12 -28 -19 -50 -7 -22 -16 -44 -20 -50 -4 -5 -15 -35 -25 -65 -10 -30
-21 -59 -26 -64 -5 -6 -9 -17 -9 -25 0 -9 -6 -28 -14 -42 -13 -26 -13 -27 21
-26 26 1 38 7 43 22 11 26 18 49 17 55 0 3 5 14 11 26 8 15 20 20 44 19 18 -1
33 -6 33 -11 1 -13 35 -156 42 -174 3 -8 7 -19 9 -25 1 -5 14 -44 29 -85 14
-41 27 -79 29 -85 2 -5 8 -23 14 -38 7 -16 12 -30 12 -32 0 -2 25 -56 55 -119
30 -64 55 -119 56 -123 0 -7 -59 -25 -121 -37 -14 -3 -45 -10 -70 -16 -61 -16
-81 -20 -110 -26 -14 -2 -32 -7 -40 -10 -8 -3 -26 -8 -40 -10 -14 -3 -43 -10
-65 -16 -22 -5 -51 -12 -65 -15 -14 -2 -43 -9 -65 -15 -44 -12 -48 -13 -85
-22 -44 -9 -63 -14 -155 -36 -49 -12 -101 -24 -115 -27 -42 -8 -42 -5 1 -178
6 -22 12 -49 15 -59 8 -40 20 -40 181 -1 87 21 167 40 178 41 11 2 47 10 80
19 33 9 71 18 85 21 14 2 32 7 40 10 8 4 24 8 35 10 11 1 30 5 42 8 54 14 64
16 343 82 36 9 72 18 81 20 10 3 27 -12 48 -41 18 -26 41 -54 50 -63 9 -9 29
-33 43 -52 15 -19 65 -74 111 -122 l84 -88 -17 -62 c-10 -35 -23 -75 -28 -89
-6 -14 -13 -39 -16 -55 -7 -40 -15 -81 -27 -133 -5 -24 -8 -46 -5 -48 2 -2 53
-6 114 -9 l109 -4 27 72 c14 40 26 78 26 85 0 6 5 13 12 15 20 7 122 -10 126
-21 2 -6 11 -11 19 -11 15 0 15 -36 -2 -120 -7 -36 -13 -69 -20 -119 -3 -23
-11 -55 -17 -70 -5 -14 -12 -35 -14 -46 -2 -11 -7 -33 -10 -50 -4 -16 -8 -43
-9 -60 -4 -48 -15 -115 -31 -185 -9 -36 -18 -76 -20 -89 -3 -12 -12 -53 -20
-90 -9 -36 -17 -75 -19 -86 -2 -11 -11 -60 -20 -110 -9 -49 -20 -103 -25 -120
-5 -16 -14 -49 -20 -72 -6 -23 -16 -48 -23 -55 -7 -7 -30 -42 -51 -78 -21 -36
-50 -81 -63 -101 -26 -40 -33 -78 -33 -184 0 -76 0 -78 19 -145 7 -25 13 -47
13 -50 0 -22 48 -86 105 -142 67 -67 153 -136 153 -123 0 3 12 -1 28 -9 56
-31 168 -39 291 -21 44 7 51 9 131 41 67 27 225 191 231 241 1 5 6 19 11 33 6
14 11 30 12 35 1 6 5 16 10 24 10 16 11 120 2 176 -14 82 -49 182 -83 232 -97
147 -237 216 -475 233 -3 0 -3 15 2 33 5 17 11 46 14 62 3 17 7 41 11 55 7 33
13 67 20 115 4 22 8 47 10 55 2 8 7 38 11 65 6 47 21 122 65 315 11 47 22 101
24 120 10 69 31 141 40 138 13 -4 10 -92 -11 -268 -3 -19 -6 -89 -8 -155 -5
-162 -17 -368 -22 -377 -8 -13 16 -18 113 -24 54 -3 123 -7 153 -9 30 -2 57
-4 60 -5 8 -3 64 1 82 6 26 8 34 -27 37 -158 1 -33 3 -36 24 -31 47 12 191 6
289 -12 35 -7 84 -36 108 -66 14 -16 49 -55 78 -87 28 -31 52 -61 52 -66 0 -5
6 -4 13 1 6 6 37 18 67 29 30 10 60 21 65 25 12 8 91 38 119 44 36 8 47 26 42
69 -3 23 -8 73 -11 111 -4 39 -8 81 -10 95 -2 14 -7 50 -11 80 -3 30 -8 71
-10 90 -7 57 -11 214 -6 233 2 9 16 20 31 23 14 4 32 11 39 17 6 5 12 7 12 3
0 -3 16 0 35 9 35 14 36 14 46 -12 8 -22 40 -181 53 -263 1 -9 6 -21 10 -28 4
-7 6 -16 3 -19 -3 -3 -1 -16 4 -30 5 -14 12 -44 14 -67 3 -22 7 -50 9 -61 2
-11 5 -26 5 -33 1 -8 20 2 49 25 26 21 64 51 85 66 l37 28 1 -23 c0 -13 2 -30
4 -38 5 -28 15 -80 20 -112 3 -18 10 -53 16 -78 5 -25 11 -54 13 -65 2 -11 9
-33 15 -49 9 -23 14 -26 26 -16 8 6 19 9 24 6 5 -4 12 -2 15 3 4 5 25 12 49
16 23 4 49 11 58 15 8 5 33 11 55 14 21 3 73 15 114 26 41 12 85 23 97 26 18
5 23 0 34 -35 7 -23 17 -41 22 -41 6 0 8 -3 4 -6 -3 -3 17 -45 46 -92 28 -48
56 -97 62 -109 l12 -22 36 19 c21 11 37 17 37 13 0 -5 4 -3 8 2 6 9 44 29 64
34 4 1 32 13 63 26 30 14 56 24 58 23 1 -1 9 2 18 8 16 8 15 13 -3 54 -40 87
-98 206 -127 260 -30 54 -109 224 -111 238 -1 4 -6 12 -11 18 -6 7 6 22 35 42
24 18 47 32 51 32 9 0 172 127 200 155 22 22 44 35 145 87 36 18 67 36 68 41
2 4 9 7 16 7 7 0 21 8 32 18 10 9 43 32 72 51 28 18 52 37 52 42 0 5 6 9 13 9
6 1 28 14 47 30 19 17 38 30 43 30 4 0 13 5 20 10 25 21 88 60 97 60 6 0 10 5
10 10 0 6 6 10 13 10 7 0 23 10 37 23 14 12 45 38 70 56 44 33 69 57 175 159
48 46 158 166 200 220 11 13 33 37 48 53 16 16 26 33 22 39 -3 5 -27 22 -53
36 -26 15 -51 32 -57 38 -5 6 -42 33 -82 60 -39 27 -86 64 -105 82 -18 18 -37
34 -42 34 -10 0 -161 123 -193 157 -12 13 -25 23 -28 23 -3 0 -15 9 -26 19
-23 21 -21 40 13 97 22 37 35 43 44 19 4 -8 11 -15 16 -15 6 0 27 -14 47 -30
55 -46 60 -50 67 -50 3 0 19 -9 36 -21 16 -12 30 -20 32 -18 15 21 66 101 66
105 0 3 10 16 23 30 13 13 30 37 40 53 l16 28 -102 76 c-159 117 -151 107
-131 156 9 23 18 41 20 41 7 0 269 -123 280 -131 6 -5 14 -6 17 -2 4 3 7 1 7
-5 0 -7 3 -11 8 -10 7 2 53 -19 183 -81 36 -17 70 -31 76 -31 5 0 38 -27 74
-61 35 -33 93 -86 128 -117 36 -31 72 -65 82 -74 29 -27 57 -39 64 -28 4 7 11
7 18 2 10 -7 220 -94 237 -98 3 0 13 -4 22 -8 25 -11 34 -2 70 72 18 37 35 69
38 72 5 5 6 14 2 48 -1 6 -8 12 -16 12 -8 0 -21 6 -28 12 -16 15 -32 25 -118
74 -35 21 -76 49 -90 64 -23 25 -41 31 -185 66 -16 4 -39 8 -50 10 -78 10
-183 38 -218 57 -23 14 -58 33 -77 44 -32 18 -93 52 -190 106 -19 10 -53 29
-75 40 -22 12 -42 24 -45 27 -3 3 -39 22 -80 44 -41 21 -78 42 -82 45 -4 3 0
36 8 72 14 62 17 67 46 73 17 3 28 9 25 12 -3 4 1 20 10 37 8 17 26 62 39 100
13 38 29 76 35 83 6 7 8 17 6 21 -3 5 1 17 9 28 12 16 14 -6 14 -177 l0 -197
28 3 c15 2 29 4 32 5 4 1 5 440 1 461 -1 3 -21 5 -46 5 -43 0 -45 -1 -62 -40
-9 -22 -17 -44 -18 -50 -2 -14 -23 -66 -35 -87 -6 -10 -10 -23 -10 -29 0 -6
-6 -25 -14 -42 -8 -18 -17 -39 -20 -47 -3 -8 -3 5 0 30 3 25 8 59 10 75 26
191 25 500 -2 675 -3 20 -6 69 -7 110 -1 50 -6 74 -13 73 -11 -2 -26 42 -39
117 -3 19 -10 39 -15 45 -4 5 -10 28 -12 50 -2 34 0 40 15 37 11 -2 17 4 18
15 4 89 3 171 -3 184 -6 13 -16 15 -50 10 -24 -4 -50 -5 -58 -3 -8 2 -36 47
-62 100 -44 91 -51 121 -25 105 16 -10 57 -10 57 0 0 4 5 5 12 1 15 -10 128
-11 128 -2 0 4 7 5 15 2 16 -7 17 -5 17 111 0 36 -1 72 -1 80 -1 13 -28 15
-181 15 -99 0 -180 3 -180 8 0 4 8 15 18 23 9 9 58 60 107 114 121 133 220
239 278 298 26 27 47 50 47 51 0 2 29 34 65 72 36 38 68 80 72 94 3 14 10 31
16 38 5 6 7 12 4 12 -4 0 0 18 8 41 8 23 13 45 10 49 -3 5 -1 11 5 15 5 3 10
13 10 20 0 16 -8 14 -85 -20 -27 -12 -64 -25 -81 -29 -20 -5 -52 -31 -99 -82
-38 -42 -87 -95 -110 -119 -39 -41 -203 -218 -261 -281 -146 -158 -145 -158
-161 -130 -4 8 -24 32 -43 53 -64 70 -64 70 -47 95 8 13 24 34 36 48 11 14 24
30 29 35 4 6 34 44 67 85 33 41 62 77 65 80 3 3 41 50 85 105 44 55 83 102 87
103 4 2 8 8 8 13 0 9 32 48 73 91 9 10 17 22 17 27 0 5 3 11 8 13 4 2 25 25
47 53 22 27 45 55 50 62 6 6 21 26 35 44 14 18 30 37 35 43 6 6 24 29 40 51
17 22 32 42 35 45 17 15 175 216 177 225 1 5 5 24 8 40 3 17 10 46 15 65 5 19
12 51 15 70 3 19 10 52 16 74 12 44 8 52 -18 37 -10 -6 -72 -36 -138 -66 -103
-46 -125 -61 -158 -102 -21 -26 -48 -59 -60 -73 -12 -14 -30 -37 -39 -51 -9
-14 -23 -32 -30 -40 -7 -8 -78 -95 -158 -194 -79 -99 -156 -196 -172 -215 -16
-19 -32 -39 -36 -45 -4 -5 -31 -39 -60 -75 -57 -70 -59 -72 -112 -140 -19 -24
-42 -52 -50 -62 -8 -9 -42 -51 -75 -92 -55 -69 -85 -92 -85 -66 0 6 -5 10 -11
10 -6 0 -18 8 -27 17 -9 9 -49 41 -89 70 l-72 53 33 53 c41 63 123 211 139
250 6 15 15 27 19 27 4 0 8 9 8 19 0 11 3 21 8 23 4 2 18 26 31 53 40 85 74
150 81 155 6 4 62 116 65 130 1 3 11 27 23 53 12 27 22 53 22 58 0 8 -30 14
-52 10 -4 0 -29 6 -54 15 -26 9 -54 17 -63 19 -9 2 -23 6 -31 9 -10 4 -28 -14
-57 -59 -24 -36 -43 -69 -43 -74 0 -18 -26 -18 -80 1 -30 11 -61 20 -67 20
-24 2 -24 36 1 90 13 29 34 78 46 108 11 30 39 89 60 131 22 42 53 114 70 160
39 107 37 102 38 113 0 5 4 12 9 15 8 6 35 59 91 181 74 162 108 240 117 270
4 14 15 36 24 50 9 14 25 42 36 62 10 20 22 36 25 35 4 -1 47 40 96 91 117
123 139 182 136 370 -1 96 -3 106 -33 160 -37 65 -100 153 -139 193 -41 44
-148 92 -230 105 -53 9 -177 10 -215 3z m-3917 -5379 c-2 -13 -7 -17 -15 -12
-10 6 -10 15 0 41 10 28 13 30 15 12 2 -11 2 -30 0 -41z"/>
<path d="M8741 8454 c-21 -9 -36 -24 -43 -45 l-11 -32 -17 21 c-28 34 -68 36
-96 5 -36 -39 -33 -88 7 -112 24 -15 28 -21 16 -27 -42 -25 -41 -80 3 -124 27
-27 51 -25 84 5 32 30 36 31 36 6 0 -24 44 -60 68 -56 9 2 22 4 27 5 6 0 18
12 28 25 15 21 16 32 8 61 -8 30 -7 35 5 30 8 -3 14 -1 14 4 0 5 7 7 16 3 18
-7 48 23 52 54 4 27 -25 92 -42 95 -34 4 -42 3 -53 -4 -8 -7 -9 1 -3 27 7 32
5 38 -17 53 -34 22 -43 22 -82 6z"/>
<path d="M2482 8237 c-12 -13 -22 -29 -22 -35 0 -16 -25 -15 -39 2 -23 28 -52
26 -82 -4 -40 -40 -40 -85 1 -108 30 -17 39 -32 20 -32 -19 0 -38 -54 -28 -80
24 -63 69 -77 114 -35 28 26 35 30 33 18 -3 -23 16 -53 40 -63 65 -27 124 39
88 98 -5 6 -7 12 -5 13 2 0 19 2 38 5 50 6 73 58 50 115 -14 32 -34 43 -73 40
-25 -2 -27 0 -18 16 30 58 -69 101 -117 50z"/>
<path d="M2916 7430 c-9 -22 -16 -45 -16 -51 0 -11 123 -69 146 -69 8 0 14 -4
14 -10 0 -5 3 -9 8 -8 4 1 20 -4 35 -10 16 -7 32 -12 36 -12 4 0 26 -9 49 -20
22 -11 45 -20 51 -20 9 0 23 29 19 40 -1 3 4 15 11 27 10 20 9 23 -14 29 -14
3 -25 10 -25 15 0 5 -11 9 -25 9 -14 0 -25 3 -25 8 0 4 -15 13 -32 21 -18 8
-71 31 -116 53 -46 21 -88 38 -92 38 -4 0 -15 -18 -24 -40z"/>
<path d="M9547 7013 c-166 -56 -272 -174 -318 -356 -26 -102 -14 -315 22 -402
7 -16 13 -32 13 -35 1 -3 13 -26 28 -52 64 -109 202 -198 341 -222 l27 -5 0
107 0 107 -32 18 c-43 23 -93 101 -112 174 -16 64 -26 193 -14 193 4 0 5 6 2
13 -7 19 13 101 36 152 20 44 75 107 85 97 3 -3 5 0 5 6 0 7 7 12 15 12 12 0
15 19 15 109 0 127 5 123 -113 84z"/>
<path d="M2348 6993 c-9 -21 -41 -108 -72 -193 -32 -85 -61 -164 -66 -175 -4
-11 -27 -72 -50 -135 -22 -63 -45 -124 -50 -135 -5 -11 -23 -60 -40 -110 -17
-49 -35 -99 -40 -110 -15 -31 -60 -161 -60 -171 0 -12 257 -11 268 1 5 6 22
46 37 90 16 44 31 84 35 88 4 4 102 9 218 10 180 2 212 0 216 -13 4 -12 65
-185 66 -185 47 0 259 3 268 4 8 1 9 6 3 19 -18 31 -115 306 -109 308 2 0 -2
7 -8 15 -6 8 -19 39 -29 69 -10 30 -24 68 -32 83 -8 16 -16 36 -18 45 -2 10
-9 31 -16 47 -6 17 -13 35 -15 40 -1 6 -15 42 -29 80 -14 39 -33 90 -42 115
-8 25 -22 57 -29 72 -8 15 -14 30 -13 33 0 3 -11 37 -26 75 l-27 70 -162 0
-162 0 -16 -37z m188 -241 c2 -16 17 -68 23 -77 3 -5 6 -14 8 -20 1 -5 25 -75
53 -154 27 -79 50 -145 50 -147 0 -2 -66 -4 -146 -4 -135 0 -146 1 -139 18 4
9 8 24 10 32 4 13 37 111 52 150 3 8 7 20 9 25 1 6 17 52 35 103 27 79 41 102
45 74z"/>
<path d="M8147 7023 c-8 -13 -2 -201 6 -209 4 -4 7 -2 7 5 0 7 5 9 12 5 16
-10 128 -11 128 -1 0 5 5 5 11 2 14 -9 69 -13 69 -5 0 4 10 6 23 4 12 -1 22
-3 22 -4 0 -1 16 -3 35 -3 l35 -2 5 -430 5 -430 125 1 c69 1 130 2 135 3 7 1
10 146 10 427 0 382 2 427 16 435 9 4 19 5 23 2 8 -9 126 -10 126 -2 0 4 16 3
35 -1 20 -4 38 -4 41 1 3 5 11 6 17 2 11 -7 86 -7 92 -1 4 4 7 74 6 146 l-1
62 -489 0 c-270 0 -492 -3 -494 -7z"/>
<path d="M1965 5475 c-2 -11 -3 -117 -2 -235 l2 -215 115 0 c124 1 165 13 194
58 37 56 24 134 -28 170 -27 17 -31 25 -21 34 7 6 15 10 18 7 12 -12 35 62 30
99 -9 78 -55 99 -216 101 -80 1 -88 -1 -92 -19z m230 -55 c18 -15 20 -70 3
-92 -16 -20 -81 -39 -98 -28 -8 5 -23 4 -36 0 -31 -12 -40 4 -39 75 l1 60 44
5 c52 6 104 -2 125 -20z m-15 -182 c0 -4 5 -8 11 -8 20 0 38 -33 39 -68 0 -36
-36 -81 -67 -83 -90 -5 -133 -4 -134 5 -3 26 -5 152 -2 157 4 10 153 6 153 -3z"/>
<path d="M2614 5491 c-3 -3 -4 -110 -4 -238 l1 -232 117 3 c168 4 214 33 214
136 0 81 -43 127 -123 135 -24 2 -46 4 -49 5 -3 1 -25 2 -50 3 l-45 2 -1 63
c0 35 3 65 8 68 4 3 57 5 118 5 l110 1 0 26 0 27 -146 0 c-80 0 -148 -2 -150
-4z m214 -250 c1 0 5 -1 8 0 16 2 42 -57 39 -89 -5 -54 -35 -74 -116 -76 -38
-1 -73 0 -78 3 -4 4 -8 43 -7 87 l1 82 75 -3 c41 -1 76 -3 78 -4z"/>
<path d="M8567 5485 c-1 -5 -2 -111 -2 -235 l1 -225 30 -2 31 -2 0 190 c0 104
3 192 6 195 3 3 15 -21 26 -53 88 -239 90 -243 122 -239 32 4 42 10 45 29 3
20 95 261 102 269 4 4 7 -79 7 -183 0 -105 3 -195 6 -201 4 -6 18 -8 31 -5
l24 6 -2 223 c0 123 -2 228 -2 234 -2 11 -72 11 -91 0 -6 -4 -11 -12 -11 -18
0 -13 -46 -134 -60 -160 -6 -10 -10 -23 -10 -30 0 -7 -10 -33 -21 -58 l-21
-45 -20 55 c-11 30 -21 60 -22 65 -2 6 -8 24 -15 40 -6 17 -23 59 -37 95 l-25
65 -44 0 c-25 0 -46 -4 -48 -10z"/>
<path d="M9088 5491 c-14 -5 -12 -13 11 -61 28 -59 29 -61 42 -100 5 -14 14
-33 19 -42 6 -10 10 -25 10 -33 0 -8 5 -15 10 -15 6 0 9 -3 8 -7 -1 -5 6 -29
16 -55 17 -45 17 -49 2 -73 -9 -14 -22 -26 -29 -26 -6 -1 -16 -2 -22 -4 -5 -1
-16 -3 -22 -3 -7 -1 -12 -13 -11 -26 2 -24 5 -25 52 -21 46 5 96 34 96 57 0 9
35 90 56 131 9 15 13 27 9 27 -3 0 2 11 11 24 8 14 15 27 15 30 0 3 9 27 21
53 11 27 21 54 21 61 0 6 4 12 8 12 6 0 22 43 23 64 1 5 -12 10 -27 10 -22 1
-32 -5 -43 -26 -8 -15 -14 -33 -14 -39 0 -7 -7 -20 -15 -29 -8 -9 -16 -25 -18
-36 -2 -10 -12 -39 -24 -64 -11 -25 -23 -54 -27 -65 -6 -16 -12 -9 -32 40 -14
33 -33 78 -43 100 -10 22 -24 56 -31 77 -14 37 -39 51 -72 39z"/>
<path d="M9534 5487 c-25 -7 -31 -15 -32 -38 -1 -33 3 -34 51 -14 20 8 52 15
72 15 31 0 35 3 35 25 0 25 -3 26 -47 24 -27 -2 -62 -7 -79 -12z"/>
<path d="M9605 5300 c-23 -4 -29 -10 -27 -25 5 -24 3 -23 27 -25 44 -5 55 0
55 24 0 28 -14 35 -55 26z"/>
<path d="M9499 5098 c0 -2 -2 -15 -3 -30 -1 -23 4 -28 39 -38 22 -6 58 -12 80
-13 36 -2 40 0 43 24 3 23 -1 26 -30 27 -41 2 -55 6 -91 20 -29 12 -36 14 -38
10z"/>
<path d="M2738 3725 c-2 -2 -20 -6 -41 -9 -47 -8 -93 -30 -130 -65 -38 -35
-55 -69 -62 -125 -3 -25 -7 -66 -10 -90 -7 -55 -30 -103 -58 -118 -14 -7 -83
-12 -187 -14 -181 -2 -203 -5 -264 -36 -81 -41 -167 -159 -197 -268 -18 -66
-20 -278 -3 -312 8 -15 14 -35 14 -44 0 -22 70 -164 81 -164 4 0 11 -10 15
-22 3 -12 16 -31 28 -43 11 -12 32 -35 46 -51 23 -26 68 -67 130 -118 67 -54
306 -179 364 -190 6 -2 36 -10 66 -20 30 -10 69 -20 85 -23 17 -3 59 -10 95
-17 70 -13 228 -14 300 -1 54 9 75 13 75 15 0 1 11 3 24 6 40 7 139 50 197 85
63 39 136 105 182 165 29 39 93 166 91 182 -1 4 0 9 1 12 10 27 22 130 23 195
0 84 -22 227 -44 285 -5 14 -11 34 -13 45 -6 29 -57 168 -66 180 -4 6 -11 21
-15 35 -4 14 -13 32 -20 40 -8 8 -15 22 -17 30 -9 42 -134 210 -197 264 -13
12 -31 28 -40 37 -23 24 -170 114 -178 111 -2 -1 -8 0 -15 3 -7 2 -35 11 -63
20 -42 14 -188 29 -197 20z m-488 -609 c29 -10 102 -85 94 -97 -3 -5 -1 -9 5
-9 9 0 20 -36 26 -86 1 -13 -6 -42 -17 -63 -15 -30 -27 -41 -56 -48 -100 -25
-193 66 -196 190 -1 55 1 60 35 91 36 34 59 38 109 22z"/>
<path d="M3484 3635 c-51 -30 -68 -63 -61 -114 6 -45 18 -61 62 -83 28 -13 41
-14 100 -9 33 2 85 56 92 94 6 40 -19 102 -49 118 -40 21 -103 19 -144 -6z"/>
<path d="M8110 2407 c-14 -7 -30 -27 -35 -45 -10 -30 -12 -31 -27 -14 -29 30
-43 38 -63 34 -56 -11 -80 -91 -38 -130 13 -12 30 -19 36 -15 7 3 0 -6 -15
-22 -34 -33 -36 -72 -7 -109 27 -35 72 -35 103 -1 l24 25 7 -27 c13 -53 73
-70 113 -33 24 22 27 45 13 83 -8 22 -7 23 15 19 39 -7 74 23 74 63 0 69 -37
106 -91 92 -15 -4 -18 -2 -10 7 14 17 5 58 -16 74 -21 15 -51 15 -83 -1z"/>
<path d="M3781 1351 c-5 -9 -12 -38 -15 -66 -4 -27 -9 -59 -11 -70 -9 -40 -16
-81 -20 -113 -2 -18 -7 -43 -11 -55 -4 -12 -8 -33 -10 -47 -1 -14 -5 -38 -8
-55 -3 -16 -8 -43 -10 -60 -3 -16 -8 -41 -11 -55 -2 -13 -7 -40 -10 -60 -3
-20 -7 -45 -9 -55 -2 -11 -7 -40 -11 -65 -4 -25 -9 -54 -11 -65 -2 -11 -7 -33
-10 -50 -3 -16 -8 -41 -9 -55 -2 -14 -6 -36 -9 -50 -3 -14 -7 -42 -10 -62 -5
-42 -15 -37 145 -64 l36 -6 8 48 c5 27 9 54 11 59 1 6 5 28 8 50 4 23 9 52 11
65 7 32 16 85 20 119 2 14 4 27 6 29 1 1 3 11 4 22 1 11 3 21 4 23 1 1 4 18 7
37 2 19 8 58 14 85 5 28 12 65 15 83 6 40 13 80 20 112 11 56 37 207 40 230 1
14 5 35 9 47 8 25 1 31 -45 37 -19 3 -56 9 -82 14 -40 8 -49 7 -56 -7z"/>
</g>
</svg>
