<svg width="99" height="102" viewBox="0 0 99 102" fill="none" xmlns="http://www.w3.org/2000/svg">
<path d="M66.3881 14.96L61.5881 16.24L55.0281 10.98L55.8981 6.56L64.7281 2.49L69.5581 0.259995L68.3581 5.81L66.3881 14.96Z" fill="#FBE0CE"/>
<path d="M68.3581 5.81C66.9081 5 65.5481 3.91 64.4081 2.64L69.5481 0.259995L68.3581 5.8V5.81Z" fill="#F8B500"/>
<path d="M69.5281 0C69.5981 0 69.6681 0.00999756 69.7281 0.0599976C69.8081 0.119998 69.8481 0.229994 69.8181 0.329994L66.6581 15.03C66.6381 15.13 66.5581 15.21 66.4681 15.23L61.6681 16.51C61.5881 16.53 61.4981 16.51 61.4281 16.46L54.8581 11.2C54.7781 11.14 54.7381 11.04 54.7581 10.94L55.6281 6.50999C55.6481 6.42999 55.6981 6.35 55.7781 6.32L69.4381 0.0299988C69.4381 0.0299988 69.4881 0.00999451 69.5181 0.00999451L69.5281 0ZM66.1681 14.75L69.1781 0.739998L56.1381 6.75L55.3181 10.88L61.6481 15.95L66.1581 14.75H66.1681Z" fill="#575756"/>
<path d="M61.9781 13.66L57.9281 10.42L55.8981 6.56L53.9581 8.98L52.7281 10.52L0.538091 75.66C0.138091 76.15 0.218084 76.87 0.718084 77.27L9.42808 84.25C9.91808 84.64 10.6381 84.57 11.0381 84.07L63.2281 18.93L64.4581 17.39L66.3981 14.97L61.9881 13.67L61.9781 13.66Z" fill="#F8B500"/>
<path d="M55.8681 6.29C55.8681 6.29 55.9081 6.29 55.9281 6.29C56.0181 6.29 56.0981 6.35 56.1381 6.43L58.1481 10.24L62.1081 13.41L66.4681 14.7C66.5581 14.73 66.6181 14.79 66.6481 14.88C66.6781 14.97 66.6481 15.06 66.5981 15.13L11.2281 84.24C10.9881 84.53 10.6581 84.72 10.2781 84.76C9.89806 84.8 9.53808 84.69 9.23808 84.46L0.528062 77.48C0.238062 77.24 0.0480732 76.91 0.00807318 76.53C-0.0319268 76.15 0.078061 75.79 0.308061 75.49L55.6781 6.38C55.7281 6.32 55.7881 6.29 55.8581 6.28L55.8681 6.29ZM65.9281 15.11L61.8981 13.92C61.8981 13.92 61.8381 13.89 61.8081 13.87L57.7581 10.63C57.7581 10.63 57.7081 10.58 57.6881 10.55L55.8481 7.05L0.738084 75.84C0.588084 76.02 0.528082 76.25 0.548082 76.48C0.568082 76.71 0.688059 76.92 0.868059 77.07L9.57808 84.05C9.75808 84.2 9.98806 84.26 10.2181 84.24C10.4481 84.22 10.6581 84.1 10.8081 83.92L65.9281 15.12V15.11Z" fill="#575756"/>
<path d="M57.808 10.27C57.878 10.27 57.9481 10.28 58.0081 10.33C58.1281 10.42 58.1381 10.59 58.0481 10.71L3.37805 78.95C3.28805 79.07 3.11805 79.08 2.99805 78.99C2.87805 78.9 2.86807 78.73 2.95807 78.61L57.6281 10.37C57.6781 10.31 57.738 10.28 57.808 10.27Z" fill="#575756"/>
<path d="M61.848 13.51C61.918 13.51 61.9881 13.52 62.0481 13.57C62.1681 13.66 62.178 13.83 62.088 13.95L7.41805 82.19C7.32805 82.31 7.15804 82.32 7.03804 82.23C6.91804 82.14 6.90804 81.97 6.99804 81.85L61.668 13.61C61.718 13.55 61.778 13.52 61.848 13.51Z" fill="#575756"/>
<path d="M63.3081 54.99L59.8681 55.64L55.5381 51.62L56.3681 48.56L62.7781 46.16L66.2681 44.84L65.1481 48.67L63.3081 54.99Z" fill="#FBE0CE"/>
<path d="M65.1481 48.67C64.1681 48.03 63.2681 47.19 62.5381 46.25L66.2681 44.84L65.1481 48.67Z" fill="#D71117"/>
<path d="M66.2581 44.65C66.2581 44.65 66.3581 44.67 66.3981 44.7C66.4481 44.75 66.4681 44.82 66.4481 44.89L63.4881 55.04C63.4681 55.11 63.4081 55.16 63.3381 55.17L59.9081 55.82C59.8481 55.83 59.7881 55.82 59.7481 55.77L55.4081 51.75C55.3581 51.7 55.3381 51.63 55.3581 51.56L56.1981 48.5C56.2181 48.44 56.2581 48.39 56.3181 48.37L66.2181 44.65C66.2181 44.65 66.2581 44.64 66.2781 44.64L66.2581 44.65ZM63.1581 54.83L65.9881 45.16L56.5381 48.71L55.7581 51.57L59.9381 55.45L63.1681 54.84L63.1581 54.83Z" fill="#575756"/>
<path d="M60.2781 53.85L57.6081 51.37L56.3781 48.56L54.8881 50.16L53.9481 51.18L14.0281 94.21C13.7281 94.54 13.7481 95.04 14.0681 95.35L19.8181 100.69C20.1481 100.99 20.6481 100.97 20.9581 100.65L60.8781 57.62L61.8181 56.6L63.3081 55L60.2781 53.86V53.85Z" fill="#D71117"/>
<path d="M56.3681 48.37C56.3681 48.37 56.3981 48.37 56.4081 48.37C56.4681 48.38 56.5281 48.42 56.5481 48.48L57.7581 51.26L60.3781 53.69L63.3681 54.82C63.4281 54.84 63.4681 54.89 63.4881 54.95C63.4981 55.01 63.4881 55.08 63.4381 55.12L21.0881 100.77C20.9081 100.96 20.6581 101.08 20.3981 101.09C20.1381 101.1 19.8781 101.01 19.6881 100.83L13.9381 95.49C13.7481 95.31 13.6281 95.06 13.6181 94.8C13.6081 94.54 13.6981 94.28 13.8781 94.09L56.2281 48.44C56.2281 48.44 56.3081 48.38 56.3581 48.38L56.3681 48.37ZM62.9781 55.07L60.2081 54.03C60.2081 54.03 60.1681 54.01 60.1481 53.99L57.4781 51.51C57.4781 51.51 57.4481 51.47 57.4381 51.45L56.3281 48.9L14.1781 94.34C14.0681 94.46 14.0081 94.62 14.0181 94.78C14.0281 94.94 14.0981 95.1 14.2181 95.21L19.9681 100.55C20.0881 100.66 20.2481 100.72 20.4081 100.71C20.5681 100.7 20.7281 100.63 20.8381 100.51L62.9981 55.07H62.9781Z" fill="#575756"/>
<path d="M57.5281 51.26C57.5281 51.26 57.6281 51.27 57.6681 51.31C57.7481 51.38 57.748 51.5 57.678 51.58L15.868 96.65C15.798 96.73 15.6781 96.73 15.5981 96.66C15.5181 96.59 15.5181 96.47 15.5881 96.39L57.398 51.32C57.398 51.32 57.4781 51.26 57.5281 51.26Z" fill="#575756"/>
<path d="M60.1981 53.74C60.1981 53.74 60.2981 53.75 60.3381 53.79C60.4181 53.86 60.4181 53.98 60.3481 54.06L18.5381 99.13C18.4681 99.21 18.3481 99.21 18.2681 99.14C18.1881 99.07 18.1881 98.95 18.2581 98.87L60.0681 53.8C60.0681 53.8 60.1481 53.74 60.1981 53.74Z" fill="#575756"/>
<path d="M84.1282 24.46C82.0282 24.46 79.8982 23.59 79.5682 21.6C79.2382 19.6 80.9382 17.51 82.9682 17.44C84.9982 17.38 86.5882 21.39 86.5882 21.39C86.5882 21.39 86.5682 18.35 87.4782 17.19C88.3882 16.03 89.9282 15.35 91.3882 15.57C92.1882 15.69 92.9882 16.1 93.3982 16.8C93.9182 17.67 93.7382 18.81 93.2182 19.68C92.6982 20.55 91.8982 21.2 91.1082 21.83C92.8782 21.17 94.5482 19.44 96.3282 20.1C97.5582 20.55 98.1082 21.97 98.3482 23.26C98.5082 24.12 98.5782 25.06 98.1782 25.84C97.6482 26.86 96.3982 27.35 95.2482 27.31C94.0982 27.27 93.0082 26.81 91.9482 26.35C92.7982 27.3 93.7782 28.09 94.1982 29.29C94.6182 30.49 94.4782 31.6 93.5082 32.44C91.7182 33.99 89.5982 33.61 88.6282 32.14C87.9882 31.16 87.7982 29.87 87.6182 27.95C87.2882 29.23 86.8482 29.88 85.9882 30.88C85.1282 31.88 83.5882 32.43 82.4482 31.77C81.9482 31.48 81.5782 30.99 81.2682 30.5C80.4382 29.21 79.9382 28.21 80.6482 26.86C81.3182 25.57 82.8882 25.09 84.1282 24.47V24.46Z" fill="#EE7617"/>
<path d="M91.0681 33.77C90.9181 33.77 90.7581 33.76 90.6081 33.74C89.6881 33.61 88.8681 33.1 88.3581 32.32C87.8481 31.54 87.6081 30.59 87.4481 29.42C87.1581 29.99 86.7781 30.48 86.2481 31.1C85.0281 32.51 83.2981 32.65 82.2781 32.06C81.6981 31.72 81.2981 31.17 80.9781 30.68C80.1281 29.36 79.5481 28.22 80.3481 26.7C80.8681 25.7 81.8681 25.15 82.8381 24.69C81.1681 24.4 79.5382 23.5 79.2382 21.65C79.0582 20.6 79.3881 19.47 80.1281 18.57C80.8681 17.67 81.8982 17.13 82.9582 17.1C83.9182 17.06 84.8881 17.78 85.8181 19.2C86.0081 19.48 86.1681 19.77 86.3081 20.03C86.4081 19.02 86.6381 17.69 87.1981 16.97C88.2181 15.67 89.8781 14.99 91.4281 15.22C92.4281 15.37 93.2481 15.88 93.6881 16.61C94.3281 17.69 94.0181 18.99 93.5081 19.84C93.3981 20.03 93.2681 20.21 93.1281 20.38C94.1881 19.8 95.2781 19.34 96.4381 19.77C97.5681 20.19 98.3381 21.37 98.6681 23.18C98.8181 24.01 98.9381 25.07 98.4681 25.98C97.9181 27.03 96.6481 27.68 95.2281 27.63C94.5481 27.61 93.8881 27.44 93.2581 27.22C93.7681 27.78 94.2481 28.39 94.5081 29.15C95.0081 30.57 94.7381 31.79 93.7281 32.67C92.9181 33.38 91.9781 33.75 91.0581 33.75L91.0681 33.77ZM87.6281 27.61C87.6281 27.61 87.6481 27.61 87.6581 27.61C87.8181 27.62 87.9581 27.75 87.9681 27.92C88.1581 29.96 88.3581 31.09 88.9281 31.96C89.3381 32.58 89.9682 32.98 90.7082 33.08C91.5882 33.2 92.5081 32.88 93.3081 32.19C94.0981 31.5 94.2981 30.56 93.8981 29.41C93.5981 28.54 92.9681 27.89 92.3081 27.21C92.1181 27.01 91.9181 26.8 91.7181 26.59C91.6081 26.47 91.5981 26.29 91.6981 26.16C91.7881 26.03 91.9581 25.98 92.1081 26.05C93.1281 26.49 94.1781 26.95 95.2781 26.98C96.2281 27.01 97.4081 26.63 97.8881 25.69C98.2681 24.96 98.1581 24.05 98.0281 23.33C97.8281 22.24 97.3481 20.85 96.2281 20.43C95.1581 20.03 94.0881 20.65 92.9481 21.3C92.3981 21.61 91.8381 21.94 91.2481 22.16C91.0881 22.22 90.9181 22.16 90.8381 22.01C90.7581 21.87 90.7881 21.68 90.9181 21.58C91.6781 20.97 92.4581 20.34 92.9481 19.52C93.4581 18.66 93.5281 17.67 93.1281 16.99C92.7981 16.44 92.1381 16.04 91.3581 15.93C90.0381 15.73 88.6281 16.32 87.7581 17.43C87.0681 18.31 86.9381 20.61 86.9381 21.42C86.9381 21.58 86.8281 21.72 86.6681 21.76C86.5081 21.79 86.3481 21.7 86.2881 21.55C85.8681 20.5 84.4581 17.77 82.9981 17.81C82.1381 17.84 81.2881 18.28 80.6681 19.03C80.0481 19.78 79.7781 20.71 79.9181 21.57C80.2381 23.47 82.3981 24.15 84.1481 24.15C84.3081 24.15 84.4381 24.26 84.4781 24.41C84.5181 24.56 84.4382 24.72 84.2982 24.79C84.0582 24.91 83.8081 25.03 83.5581 25.14C82.5281 25.61 81.4581 26.1 80.9681 27.04C80.3381 28.25 80.7981 29.13 81.5681 30.34C81.8381 30.77 82.1781 31.24 82.6381 31.5C83.6381 32.08 85.0081 31.54 85.7481 30.68C86.5981 29.69 87.0081 29.08 87.3081 27.88C87.3481 27.73 87.4781 27.62 87.6381 27.62L87.6281 27.61Z" fill="#575756"/>
</svg>
