<svg width="276" height="156" viewBox="0 0 276 156" fill="none" xmlns="http://www.w3.org/2000/svg">
<path d="M0 54L12.375 17.7L20.625 14.675H20.9L33.825 54H21.725L18.315 43.55H7.865L5.225 54H0ZM8.47 40.525H17.27L12.65 25.4H12.375L8.47 40.525ZM37.4129 54V15.5H52.8129C63.2629 15.5 68.2129 20.45 68.2129 27.6C68.2129 35.025 62.4379 40.8 50.6129 40.8H49.5129V54H37.4129ZM49.5129 38.05H50.3379C53.0879 38.05 55.2879 35.85 55.2879 28.15C55.2879 20.45 53.0879 18.25 50.6129 18.25H49.5129V38.05ZM80.6094 54V17.975H80.0594L70.4344 25.675H70.1594V15.5H103.159V25.675H102.884L93.2594 17.975H92.7094V54H80.6094ZM102.616 63.9V61.15H125.716V63.9H102.616ZM126.259 54.55L123.509 43.275C128.734 42.175 133.079 37.445 134.509 21.55L135.059 15.5H156.784V54H144.684V18.525H137.974L137.479 24.3C135.719 44.595 132.474 53.725 126.259 54.55ZM163.956 54V15.5H188.981V22.1L176.056 17.7V32.825L187.881 31.45V36.125L176.056 34.75V51.8L188.981 47.675V54H163.956ZM202.157 54V17.975H201.607L191.982 25.675H191.707V15.5H224.707V25.675H224.432L214.807 17.975H214.257V54H202.157ZM243.164 54.825C232.714 54.825 226.389 48.5 226.389 35.575C226.389 22.925 234.639 14.675 244.264 14.675C254.714 14.675 261.039 21 261.039 33.925C261.039 46.575 252.789 54.825 243.164 54.825ZM243.714 52.35C245.914 52.35 248.114 50.15 248.114 34.75C248.114 19.35 245.914 17.15 243.714 17.15C241.514 17.15 239.314 19.35 239.314 34.75C239.314 50.15 241.514 52.35 243.714 52.35Z" fill="#A41930"/>
<path d="M5.75 92.1811H1.875V74.6811H5.5C9.66667 74.6811 11.75 76.0144 11.75 78.6811C11.75 80.1978 11.1 81.3478 9.8 82.1311C9.25 82.4811 8.60833 82.7478 7.875 82.9311V83.0561C9.50833 83.0561 10.75 83.4144 11.6 84.1311C12.45 84.8478 12.875 85.8228 12.875 87.0561C12.875 88.6394 12.2833 89.8894 11.1 90.8061C9.93333 91.7228 8.15 92.1811 5.75 92.1811ZM4.625 75.4311V82.8061H5.375C6.575 82.8061 7.45833 82.5144 8.025 81.9311C8.59167 81.3478 8.875 80.4311 8.875 79.1811C8.875 77.8811 8.59167 76.9311 8.025 76.3311C7.45833 75.7311 6.575 75.4311 5.375 75.4311H4.625ZM5.75 83.5561H4.625V91.4311H5.75C7.2 91.4311 8.25 91.1144 8.9 90.4811C9.55 89.8478 9.875 88.8311 9.875 87.4311C9.875 86.0978 9.54167 85.1228 8.875 84.5061C8.225 83.8728 7.18333 83.5561 5.75 83.5561ZM23.9854 75.3061V81.5561H25.1104C27.2937 81.5561 28.9437 82.0228 30.0604 82.9561C31.177 83.8728 31.7354 85.1144 31.7354 86.6811C31.7354 88.3144 31.102 89.6394 29.8354 90.6561C28.5854 91.6728 26.7604 92.1811 24.3604 92.1811H21.2354V74.6811H30.3604V76.8061L23.9854 75.3061ZM23.9854 91.4311H24.4854C25.9354 91.4311 27.002 91.0728 27.6854 90.3561C28.3854 89.6228 28.7354 88.4811 28.7354 86.9311C28.7354 85.3144 28.3937 84.1394 27.7104 83.4061C27.027 82.6728 25.952 82.3061 24.4854 82.3061H23.9854V91.4311ZM37.8643 75.3061L40.1143 74.4311H40.2393L45.2393 92.1811H42.3643L40.9893 87.0811H35.8643L34.7393 92.1811H32.9893L37.8643 75.3061ZM38.1143 76.8061L36.0393 86.3061H40.7893L38.2393 76.8061H38.1143ZM52.6084 81.9311H52.7334L55.4834 74.6811H57.1084L53.2334 82.9311L57.8584 92.1811H54.9834L51.1084 84.4311H50.9834L47.9834 92.1811H46.1084L50.6084 83.4311L46.2334 74.6811H49.1084L52.6084 81.9311ZM62.7305 92.1811H59.9805V74.6811H63.9805C66.1138 74.6811 67.7305 75.1561 68.8305 76.1061C69.9305 77.0561 70.4805 78.3478 70.4805 79.9811C70.4805 81.6478 69.8221 83.0394 68.5055 84.1561C67.1888 85.2561 65.3888 85.8061 63.1055 85.8061H62.7305V92.1811ZM62.7305 75.4311V85.0561H63.2305C64.6305 85.0561 65.7055 84.6478 66.4555 83.8311C67.2221 83.0144 67.6055 81.7978 67.6055 80.1811C67.6055 77.0144 66.1471 75.4311 63.2305 75.4311H62.7305ZM81.3555 74.6811H83.2305L78.4805 85.4311C77.3138 88.0478 76.3638 89.8144 75.6305 90.7311C74.9138 91.6311 74.0305 92.2394 72.9805 92.5561L71.9805 89.6811C73.2805 89.5311 74.2805 89.2644 74.9805 88.8811C75.6971 88.4811 76.3221 87.7478 76.8555 86.6811L70.7305 74.6811H73.8555L78.2305 83.4311H78.3555L81.3555 74.6811ZM91.8525 74.6811H94.6025V91.4311H98.6025V74.6811H101.353V92.1811H85.1025V74.6811H87.8525V91.4311H91.8525V74.6811ZM107.848 92.1811H105.098V74.6811H107.848V89.5561H107.973L113.598 74.6811H116.348V92.1811H113.598V77.3061H113.473L107.848 92.1811ZM122.838 92.1811H120.088V74.6811H122.838V82.6811H128.463V74.6811H131.213V92.1811H128.463V83.4311H122.838V92.1811ZM140.831 75.1811C138.414 75.1811 137.206 77.9311 137.206 83.4311C137.206 86.2644 137.564 88.3061 138.281 89.5561C139.014 90.8061 139.948 91.4311 141.081 91.4311C142.214 91.4311 143.181 90.7644 143.981 89.4311C144.314 88.8978 144.598 88.2311 144.831 87.4311L145.581 87.6811C145.364 88.5478 145.031 89.3394 144.581 90.0561C143.631 91.6394 142.298 92.4311 140.581 92.4311C138.731 92.4311 137.223 91.6978 136.056 90.2311C134.906 88.7644 134.331 86.6228 134.331 83.8061C134.331 80.8894 134.989 78.5978 136.306 76.9311C137.623 75.2644 139.214 74.4311 141.081 74.4311C142.464 74.4311 143.556 74.8394 144.356 75.6561C145.173 76.4561 145.581 77.5478 145.581 78.9311V80.1811H143.081V79.1811C143.081 77.8478 142.864 76.8478 142.431 76.1811C141.998 75.5144 141.464 75.1811 140.831 75.1811ZM156.21 92.1811L152.085 83.4311H151.085V92.1811H148.335V74.6811H151.085V82.6811H152.46C153.143 79.7978 153.827 77.7061 154.51 76.4061C155.193 75.0894 155.927 74.4311 156.71 74.4311C157.71 74.4311 158.21 75.2228 158.21 76.8061V78.6811H155.71V77.5561C155.71 77.1894 155.685 76.9561 155.635 76.8561C155.585 76.7394 155.485 76.6811 155.335 76.6811C155.235 76.6811 155.11 76.8311 154.96 77.1311C154.81 77.4144 154.635 77.8811 154.435 78.5311C154.235 79.1644 154.035 79.9228 153.835 80.8061L159.21 92.1811H156.21ZM164.035 89.8561C164.685 91.0728 165.577 91.6811 166.71 91.6811C167.843 91.6811 168.727 91.0728 169.36 89.8561C170.01 88.6394 170.335 86.4978 170.335 83.4311C170.335 80.3644 170.01 78.2228 169.36 77.0061C168.727 75.7894 167.843 75.1811 166.71 75.1811C165.577 75.1811 164.685 75.7894 164.035 77.0061C163.402 78.2228 163.085 80.3644 163.085 83.4311C163.085 86.4978 163.402 88.6394 164.035 89.8561ZM166.96 74.4311C168.81 74.4311 170.31 75.1644 171.46 76.6311C172.627 78.0978 173.21 80.2394 173.21 83.0561C173.21 85.9061 172.535 88.1811 171.185 89.8811C169.852 91.5811 168.277 92.4311 166.46 92.4311C164.61 92.4311 163.102 91.6978 161.935 90.2311C160.785 88.7644 160.21 86.6228 160.21 83.8061C160.21 80.9561 160.877 78.6811 162.21 76.9811C163.56 75.2811 165.143 74.4311 166.96 74.4311ZM191.338 92.1811H188.588V77.5561H188.463L183.338 92.4311H183.088L177.088 77.5561H176.963L177.838 92.1811H176.338V74.6811H178.913L184.088 87.4311H184.213L188.588 74.6811H191.338V92.1811ZM215.581 92.1811H212.831V77.5561H212.706L207.581 92.4311H207.331L201.331 77.5561H201.206L202.081 92.1811H200.581V74.6811H203.156L208.331 87.4311H208.456L212.831 74.6811H215.581V92.1811ZM228.206 74.6811H230.081L225.331 85.4311C224.164 88.0478 223.214 89.8144 222.481 90.7311C221.764 91.6311 220.881 92.2394 219.831 92.5561L218.831 89.6811C220.131 89.5311 221.131 89.2644 221.831 88.8811C222.548 88.4811 223.173 87.7478 223.706 86.6811L217.581 74.6811H220.706L225.081 83.4311H225.206L228.206 74.6811ZM235.953 91.6811C236.936 91.6811 237.72 91.3228 238.303 90.6061C238.903 89.8728 239.203 88.8144 239.203 87.4311C239.203 84.6811 238.078 83.3061 235.828 83.3061H235.578L233.578 83.9311V81.9311L235.578 82.5561C236.561 82.5561 237.328 82.2311 237.878 81.5811C238.428 80.9144 238.703 79.9061 238.703 78.5561C238.703 77.4061 238.47 76.5561 238.003 76.0061C237.553 75.4561 236.953 75.1811 236.203 75.1811C235.37 75.1811 234.636 75.5728 234.003 76.3561C233.37 77.1228 232.978 78.2811 232.828 79.8311H232.578L231.453 75.9311C231.836 75.6644 232.303 75.4144 232.853 75.1811C234.02 74.6811 235.22 74.4311 236.453 74.4311C238.153 74.4311 239.428 74.7811 240.278 75.4811C241.145 76.1644 241.578 77.1061 241.578 78.3061C241.578 79.5061 241.12 80.5228 240.203 81.3561C239.303 82.1894 238.47 82.6728 237.703 82.8061V82.9311C239.07 82.9311 240.136 83.3061 240.903 84.0561C241.686 84.7894 242.078 85.7894 242.078 87.0561C242.078 88.6561 241.52 89.9561 240.403 90.9561C239.303 91.9394 237.778 92.4311 235.828 92.4311C232.495 92.4311 230.828 91.0978 230.828 88.4311V87.0561H233.328V88.6811C233.328 89.7311 233.536 90.4978 233.953 90.9811C234.386 91.4478 235.053 91.6811 235.953 91.6811ZM244.941 92.1811V74.6811H254.441V76.6811L247.691 75.3061V82.6811L253.691 82.1811V83.8061L247.691 83.3061V91.5561L254.441 90.3061V92.1811H244.941ZM257.441 92.1811V74.6811H266.941V76.6811L260.191 75.3061V82.6811L266.191 82.1811V83.8061L260.191 83.3061V91.5561L266.941 90.3061V92.1811H257.441Z" fill="#A41930"/>
<path d="M64.3504 132.192H62.6224V123.792H69.1984V132.192H67.4704V125.4H64.3504V132.192ZM72.4614 134.712H70.9014V126.372H72.4614V127.152H72.4974C72.7854 126.696 73.3734 126.252 74.2254 126.252C75.5694 126.252 76.6854 127.428 76.6854 129.276C76.6854 131.124 75.5694 132.312 74.2254 132.312C73.3734 132.312 72.7854 131.868 72.4974 131.412H72.4614V134.712ZM73.7694 130.86C74.5134 130.86 75.1014 130.188 75.1014 129.276C75.1014 128.376 74.5134 127.704 73.7694 127.704C73.0494 127.704 72.4614 128.364 72.4614 129.276C72.4614 130.2 73.0494 130.86 73.7694 130.86ZM80.4075 132.312C78.7635 132.312 77.4915 130.98 77.4915 129.276C77.4915 127.572 78.7635 126.252 80.4075 126.252C82.0635 126.252 83.3235 127.572 83.3235 129.276C83.3235 130.98 82.0635 132.312 80.4075 132.312ZM80.4075 130.872C81.1635 130.872 81.7395 130.2 81.7395 129.276C81.7395 128.364 81.1635 127.692 80.4075 127.692C79.6635 127.692 79.0875 128.364 79.0875 129.276C79.0875 130.2 79.6635 130.872 80.4075 130.872ZM85.9966 132.192H84.4366V126.372H88.4446V127.824H85.9966V132.192ZM90.8247 134.712H89.2647V126.372H90.8247V127.152H90.8607C91.1487 126.696 91.7367 126.252 92.5887 126.252C93.9327 126.252 95.0487 127.428 95.0487 129.276C95.0487 131.124 93.9327 132.312 92.5887 132.312C91.7367 132.312 91.1487 131.868 90.8607 131.412H90.8247V134.712ZM92.1327 130.86C92.8767 130.86 93.4647 130.188 93.4647 129.276C93.4647 128.376 92.8767 127.704 92.1327 127.704C91.4127 127.704 90.8247 128.364 90.8247 129.276C90.8247 130.2 91.4127 130.86 92.1327 130.86ZM98.4347 126.252C99.8747 126.252 100.811 127.188 100.811 128.436V132.192H99.3467V131.424H99.3107C99.0827 131.808 98.5067 132.312 97.6667 132.312C96.6107 132.312 95.8427 131.568 95.8427 130.632C95.8427 129.684 96.4667 129.012 97.6307 128.76L99.2627 128.424V128.412C99.2387 127.908 98.8907 127.548 98.3267 127.548C97.7507 127.548 97.3427 127.884 97.0547 128.196L96.1547 127.344C96.5387 126.864 97.3427 126.252 98.4347 126.252ZM98.0987 131.04C98.7707 131.04 99.2627 130.512 99.2627 129.732V129.456L98.1227 129.708C97.6667 129.804 97.4027 130.068 97.4027 130.416C97.4027 130.788 97.6667 131.04 98.0987 131.04ZM103.75 132.192H102.19V126.372H103.534L105.214 128.652H105.25L106.918 126.372H108.238V132.192H106.678V128.832H106.642L105.214 130.776L103.786 128.832H103.75V132.192ZM111.239 132.192H109.679V126.372H111.023L112.703 128.652H112.739L114.407 126.372H115.727V132.192H114.167V128.832H114.131L112.703 130.776L111.275 128.832H111.239V132.192ZM119.423 126.252C120.863 126.252 121.799 127.188 121.799 128.436V132.192H120.335V131.424H120.299C120.071 131.808 119.495 132.312 118.655 132.312C117.599 132.312 116.831 131.568 116.831 130.632C116.831 129.684 117.455 129.012 118.619 128.76L120.251 128.424V128.412C120.227 127.908 119.879 127.548 119.315 127.548C118.739 127.548 118.331 127.884 118.043 128.196L117.143 127.344C117.527 126.864 118.331 126.252 119.423 126.252ZM119.087 131.04C119.759 131.04 120.251 130.512 120.251 129.732V129.456L119.111 129.708C118.655 129.804 118.391 130.068 118.391 130.416C118.391 130.788 118.655 131.04 119.087 131.04ZM127.305 132.192H125.745V126.372H127.089L128.769 128.652H128.805L130.473 126.372H131.793V132.192H130.233V128.832H130.197L128.769 130.776L127.341 128.832H127.305V132.192ZM135.489 126.252C136.929 126.252 137.865 127.188 137.865 128.436V132.192H136.401V131.424H136.365C136.137 131.808 135.561 132.312 134.721 132.312C133.665 132.312 132.897 131.568 132.897 130.632C132.897 129.684 133.521 129.012 134.685 128.76L136.317 128.424V128.412C136.293 127.908 135.945 127.548 135.381 127.548C134.805 127.548 134.397 127.884 134.109 128.196L133.209 127.344C133.593 126.864 134.397 126.252 135.489 126.252ZM135.153 131.04C135.825 131.04 136.317 130.512 136.317 129.732V129.456L135.177 129.708C134.721 129.804 134.457 130.068 134.457 130.416C134.457 130.788 134.721 131.04 135.153 131.04ZM141.849 132.312C140.193 132.312 138.921 130.98 138.921 129.276C138.921 127.572 140.193 126.252 141.849 126.252C143.109 126.252 143.925 127.044 144.201 127.44L143.169 128.34C142.917 128.04 142.533 127.692 141.909 127.692C141.105 127.692 140.517 128.364 140.517 129.276C140.517 130.2 141.105 130.872 141.909 130.872C142.521 130.872 142.953 130.512 143.229 130.2L144.261 131.1C143.937 131.52 143.097 132.312 141.849 132.312ZM147.782 132.192H146.222V127.824H144.518V126.372H149.474V127.824H147.782V132.192ZM152.924 132.312C151.208 132.312 149.96 130.968 149.96 129.276C149.96 127.572 151.22 126.252 152.828 126.252C154.424 126.252 155.588 127.524 155.588 129.144C155.588 129.408 155.54 129.66 155.516 129.78H151.544C151.652 130.416 152.228 130.992 153.044 130.992C153.728 130.992 154.196 130.656 154.472 130.416L155.264 131.352C154.928 131.736 154.112 132.312 152.924 132.312ZM151.544 128.724H154.016C153.92 128.028 153.464 127.548 152.828 127.548C152.144 127.548 151.688 128.028 151.544 128.724ZM158.207 134.712H156.647V126.372H158.207V127.152H158.243C158.531 126.696 159.119 126.252 159.971 126.252C161.315 126.252 162.431 127.428 162.431 129.276C162.431 131.124 161.315 132.312 159.971 132.312C159.119 132.312 158.531 131.868 158.243 131.412H158.207V134.712ZM159.515 130.86C160.259 130.86 160.847 130.188 160.847 129.276C160.847 128.376 160.259 127.704 159.515 127.704C158.795 127.704 158.207 128.364 158.207 129.276C158.207 130.2 158.795 130.86 159.515 130.86ZM166.958 129.36H163.358V127.968H166.958V129.36ZM169.75 132.192H168.19V126.372H169.75V128.676L171.73 126.372H173.554L171.478 128.76L173.674 132.192H171.946L170.47 129.84L169.75 130.68V132.192ZM174.968 127.992L175.004 126.372H179.384V132.192H177.824V127.824H176.468L176.456 128.256C176.384 131.46 175.58 132.348 174.392 132.348C174.08 132.348 173.78 132.252 173.672 132.192V130.752C173.756 130.776 173.9 130.824 174.068 130.824C174.632 130.824 174.908 130.44 174.968 127.992ZM183.079 126.252C184.519 126.252 185.455 127.188 185.455 128.436V132.192H183.991V131.424H183.955C183.727 131.808 183.151 132.312 182.311 132.312C181.255 132.312 180.487 131.568 180.487 130.632C180.487 129.684 181.111 129.012 182.275 128.76L183.907 128.424V128.412C183.883 127.908 183.535 127.548 182.971 127.548C182.395 127.548 181.987 127.884 181.699 128.196L180.799 127.344C181.183 126.864 181.987 126.252 183.079 126.252ZM182.743 131.04C183.415 131.04 183.907 130.512 183.907 129.732V129.456L182.767 129.708C182.311 129.804 182.047 130.068 182.047 130.416C182.047 130.788 182.311 131.04 182.743 131.04ZM189.439 132.312C187.783 132.312 186.511 130.98 186.511 129.276C186.511 127.572 187.783 126.252 189.439 126.252C190.699 126.252 191.515 127.044 191.791 127.44L190.759 128.34C190.507 128.04 190.123 127.692 189.499 127.692C188.695 127.692 188.107 128.364 188.107 129.276C188.107 130.2 188.695 130.872 189.499 130.872C190.111 130.872 190.543 130.512 190.819 130.2L191.851 131.1C191.527 131.52 190.687 132.312 189.439 132.312ZM195.228 132.312C193.572 132.312 192.3 130.98 192.3 129.276C192.3 127.572 193.572 126.252 195.228 126.252C196.488 126.252 197.304 127.044 197.58 127.44L196.548 128.34C196.296 128.04 195.912 127.692 195.288 127.692C194.484 127.692 193.896 128.364 193.896 129.276C193.896 130.2 194.484 130.872 195.288 130.872C195.9 130.872 196.332 130.512 196.608 130.2L197.64 131.1C197.316 131.52 196.476 132.312 195.228 132.312ZM201.005 132.312C199.361 132.312 198.089 130.98 198.089 129.276C198.089 127.572 199.361 126.252 201.005 126.252C202.661 126.252 203.921 127.572 203.921 129.276C203.921 130.98 202.661 132.312 201.005 132.312ZM201.005 130.872C201.761 130.872 202.337 130.2 202.337 129.276C202.337 128.364 201.761 127.692 201.005 127.692C200.261 127.692 199.685 128.364 199.685 129.276C199.685 130.2 200.261 130.872 201.005 130.872ZM207.806 132.192H205.034V126.372H207.698C208.994 126.372 209.726 127.08 209.726 127.944C209.726 128.52 209.378 128.928 208.946 129.132C209.426 129.276 209.942 129.744 209.942 130.476C209.942 131.448 209.198 132.192 207.806 132.192ZM206.594 127.548V128.676H207.518C207.926 128.676 208.142 128.448 208.142 128.112C208.142 127.776 207.926 127.548 207.518 127.548H206.594ZM206.594 129.696V131.016H207.638C208.094 131.016 208.358 130.764 208.358 130.356C208.358 129.948 208.094 129.696 207.638 129.696H206.594Z" fill="#A41930"/>
<path d="M67.3144 142.476V146.88H68.1064V149.712H66.5464V148.296H63.3544V149.712H61.7944V146.88H62.2024C62.6344 146.328 62.9944 145.32 63.0304 144.048L63.0544 142.476H67.3144ZM63.7504 146.88H65.7904V143.868H64.4824L64.4704 144.264C64.4464 145.716 63.9784 146.64 63.7504 146.88ZM69.7107 144.096L69.7467 142.476H74.1267V148.296H72.5667V143.928H71.2107L71.1987 144.36C71.1267 147.564 70.3227 148.452 69.1347 148.452C68.8227 148.452 68.5227 148.356 68.4147 148.296V146.856C68.4987 146.88 68.6427 146.928 68.8107 146.928C69.3747 146.928 69.6507 146.544 69.7107 144.096ZM77.6535 142.476H80.1975V148.296H78.6375V146.484H77.8335L76.8375 148.296H75.1575L76.4175 146.208C75.7455 145.872 75.3855 145.236 75.3855 144.492C75.3855 143.34 76.2495 142.476 77.6535 142.476ZM77.7495 145.26H78.6495V143.724H77.7495C77.2575 143.724 76.9455 144.036 76.9455 144.492C76.9455 144.948 77.2575 145.26 77.7495 145.26ZM89.1582 142.476V146.88H89.9502V149.712H88.3902V148.296H85.1982V149.712H83.6382V146.88H84.0462C84.4782 146.328 84.8382 145.32 84.8742 144.048L84.8982 142.476H89.1582ZM85.5942 146.88H87.6342V143.868H86.3262L86.3142 144.264C86.2902 145.716 85.8222 146.64 85.5942 146.88ZM93.4984 148.416C91.7824 148.416 90.5344 147.072 90.5344 145.38C90.5344 143.676 91.7944 142.356 93.4024 142.356C94.9984 142.356 96.1624 143.628 96.1624 145.248C96.1624 145.512 96.1144 145.764 96.0904 145.884H92.1184C92.2264 146.52 92.8024 147.096 93.6184 147.096C94.3024 147.096 94.7704 146.76 95.0464 146.52L95.8384 147.456C95.5024 147.84 94.6864 148.416 93.4984 148.416ZM92.1184 144.828H94.5904C94.4944 144.132 94.0384 143.652 93.4024 143.652C92.7184 143.652 92.2624 144.132 92.1184 144.828ZM99.8525 148.296H98.2925V143.928H96.5885V142.476H101.545V143.928H99.8525V148.296ZM104.995 148.416C103.279 148.416 102.031 147.072 102.031 145.38C102.031 143.676 103.291 142.356 104.899 142.356C106.495 142.356 107.659 143.628 107.659 145.248C107.659 145.512 107.611 145.764 107.587 145.884H103.615C103.723 146.52 104.299 147.096 105.115 147.096C105.799 147.096 106.267 146.76 106.543 146.52L107.335 147.456C106.999 147.84 106.183 148.416 104.995 148.416ZM103.615 144.828H106.087C105.991 144.132 105.535 143.652 104.899 143.652C104.215 143.652 103.759 144.132 103.615 144.828ZM111.346 141.636C110.242 141.636 109.438 140.892 109.438 139.8H110.602C110.602 140.292 110.914 140.604 111.346 140.604C111.79 140.604 112.09 140.292 112.09 139.8H113.254C113.254 140.892 112.462 141.636 111.346 141.636ZM110.05 148.296H108.718V142.476H110.266V145.752H110.29L112.666 142.476H113.986V148.296H112.45V145.02H112.414L110.05 148.296ZM119.547 150.816H117.987V142.476H119.547V143.256H119.583C119.871 142.8 120.459 142.356 121.311 142.356C122.655 142.356 123.771 143.532 123.771 145.38C123.771 147.228 122.655 148.416 121.311 148.416C120.459 148.416 119.871 147.972 119.583 147.516H119.547V150.816ZM120.855 146.964C121.599 146.964 122.187 146.292 122.187 145.38C122.187 144.48 121.599 143.808 120.855 143.808C120.135 143.808 119.547 144.468 119.547 145.38C119.547 146.304 120.135 146.964 120.855 146.964ZM127.157 142.356C128.597 142.356 129.533 143.292 129.533 144.54V148.296H128.069V147.528H128.033C127.805 147.912 127.229 148.416 126.389 148.416C125.333 148.416 124.565 147.672 124.565 146.736C124.565 145.788 125.189 145.116 126.353 144.864L127.985 144.528V144.516C127.961 144.012 127.613 143.652 127.049 143.652C126.473 143.652 126.065 143.988 125.777 144.3L124.877 143.448C125.261 142.968 126.065 142.356 127.157 142.356ZM126.821 147.144C127.493 147.144 127.985 146.616 127.985 145.836V145.56L126.845 145.812C126.389 145.908 126.125 146.172 126.125 146.52C126.125 146.892 126.389 147.144 126.821 147.144ZM132.632 148.416C131.54 148.416 130.712 147.936 130.268 147.372L131.156 146.484C131.408 146.772 131.888 147.108 132.464 147.108C133.028 147.108 133.304 146.832 133.304 146.484C133.304 146.136 133.04 145.86 132.452 145.86H131.828V144.744H132.416C132.932 144.744 133.148 144.492 133.148 144.204C133.148 143.916 132.896 143.652 132.428 143.652C131.924 143.652 131.516 143.892 131.312 144.072L130.436 143.172C130.796 142.836 131.54 142.356 132.608 142.356C134.024 142.356 134.78 143.16 134.78 144C134.78 144.684 134.3 145.116 133.868 145.296C134.276 145.416 134.936 145.848 134.936 146.7C134.936 147.576 134.156 148.416 132.632 148.416ZM137.7 148.296H136.14V142.476H137.7V144.636H139.776V142.476H141.336V148.296H139.776V146.076H137.7V148.296ZM145.232 148.296H142.772V142.476H144.332V144.24H145.232C146.576 144.24 147.428 145.116 147.428 146.28C147.428 147.432 146.576 148.296 145.232 148.296ZM149.672 148.296H148.112V142.476H149.672V148.296ZM144.332 145.488V147.048H145.076C145.556 147.048 145.868 146.736 145.868 146.28C145.868 145.8 145.556 145.488 145.076 145.488H144.332ZM152.22 148.296H150.528L152.34 145.308L150.636 142.476H152.376L153.396 144.324H153.432L154.452 142.476H156.144L154.44 145.308L156.252 148.296H154.5L153.384 146.28H153.348L152.22 148.296ZM162.232 148.296H159.46V142.476H162.124C163.42 142.476 164.152 143.184 164.152 144.048C164.152 144.624 163.804 145.032 163.372 145.236C163.852 145.38 164.368 145.848 164.368 146.58C164.368 147.552 163.624 148.296 162.232 148.296ZM161.02 143.652V144.78H161.944C162.352 144.78 162.568 144.552 162.568 144.216C162.568 143.88 162.352 143.652 161.944 143.652H161.02ZM161.02 145.8V147.12H162.064C162.52 147.12 162.784 146.868 162.784 146.46C162.784 146.052 162.52 145.8 162.064 145.8H161.02ZM168.157 148.416C166.513 148.416 165.241 147.084 165.241 145.38C165.241 143.676 166.513 142.356 168.157 142.356C169.813 142.356 171.073 143.676 171.073 145.38C171.073 147.084 169.813 148.416 168.157 148.416ZM168.157 146.976C168.913 146.976 169.489 146.304 169.489 145.38C169.489 144.468 168.913 143.796 168.157 143.796C167.413 143.796 166.837 144.468 166.837 145.38C166.837 146.304 167.413 146.976 168.157 146.976ZM173.87 148.416C172.778 148.416 171.95 147.936 171.506 147.372L172.394 146.484C172.646 146.772 173.126 147.108 173.702 147.108C174.266 147.108 174.542 146.832 174.542 146.484C174.542 146.136 174.278 145.86 173.69 145.86H173.066V144.744H173.654C174.17 144.744 174.386 144.492 174.386 144.204C174.386 143.916 174.134 143.652 173.666 143.652C173.162 143.652 172.754 143.892 172.55 144.072L171.674 143.172C172.034 142.836 172.778 142.356 173.846 142.356C175.262 142.356 176.018 143.16 176.018 144C176.018 144.684 175.538 145.116 175.106 145.296C175.514 145.416 176.174 145.848 176.174 146.7C176.174 147.576 175.394 148.416 173.87 148.416ZM178.938 150.816H177.378V142.476H178.938V143.256H178.974C179.262 142.8 179.85 142.356 180.702 142.356C182.046 142.356 183.162 143.532 183.162 145.38C183.162 147.228 182.046 148.416 180.702 148.416C179.85 148.416 179.262 147.972 178.974 147.516H178.938V150.816ZM180.246 146.964C180.99 146.964 181.578 146.292 181.578 145.38C181.578 144.48 180.99 143.808 180.246 143.808C179.526 143.808 178.938 144.468 178.938 145.38C178.938 146.304 179.526 146.964 180.246 146.964ZM186.548 142.356C187.988 142.356 188.924 143.292 188.924 144.54V148.296H187.46V147.528H187.424C187.196 147.912 186.62 148.416 185.78 148.416C184.724 148.416 183.956 147.672 183.956 146.736C183.956 145.788 184.58 145.116 185.744 144.864L187.376 144.528V144.516C187.352 144.012 187.004 143.652 186.44 143.652C185.864 143.652 185.456 143.988 185.168 144.3L184.268 143.448C184.652 142.968 185.456 142.356 186.548 142.356ZM186.212 147.144C186.884 147.144 187.376 146.616 187.376 145.836V145.56L186.236 145.812C185.78 145.908 185.516 146.172 185.516 146.52C185.516 146.892 185.78 147.144 186.212 147.144ZM192.908 148.416C191.252 148.416 189.98 147.084 189.98 145.38C189.98 143.676 191.252 142.356 192.908 142.356C194.168 142.356 194.984 143.148 195.26 143.544L194.228 144.444C193.976 144.144 193.592 143.796 192.968 143.796C192.164 143.796 191.576 144.468 191.576 145.38C191.576 146.304 192.164 146.976 192.968 146.976C193.58 146.976 194.012 146.616 194.288 146.304L195.32 147.204C194.996 147.624 194.156 148.416 192.908 148.416ZM198.841 148.296H197.281V143.928H195.577V142.476H200.533V143.928H198.841V148.296ZM203.935 148.416C202.291 148.416 201.019 147.084 201.019 145.38C201.019 143.676 202.291 142.356 203.935 142.356C205.591 142.356 206.851 143.676 206.851 145.38C206.851 147.084 205.591 148.416 203.935 148.416ZM203.935 146.976C204.691 146.976 205.267 146.304 205.267 145.38C205.267 144.468 204.691 143.796 203.935 143.796C203.191 143.796 202.615 144.468 202.615 145.38C202.615 146.304 203.191 146.976 203.935 146.976ZM210.736 148.296H207.964V142.476H210.628C211.924 142.476 212.656 143.184 212.656 144.048C212.656 144.624 212.308 145.032 211.876 145.236C212.356 145.38 212.872 145.848 212.872 146.58C212.872 147.552 212.128 148.296 210.736 148.296ZM209.524 143.652V144.78H210.448C210.856 144.78 211.072 144.552 211.072 144.216C211.072 143.88 210.856 143.652 210.448 143.652H209.524ZM209.524 145.8V147.12H210.568C211.024 147.12 211.288 146.868 211.288 146.46C211.288 146.052 211.024 145.8 210.568 145.8H209.524Z" fill="#A41930"/>
</svg>
